<svg xmlns="http://www.w3.org/2000/svg" width="20" height="20" viewBox="0 0 20 20">
    <path fill="#9B9B9B" fill-rule="nonzero" d="M11.556 11.315c.086.202.102.424.058.685a1.247 1.247 0 0 1-1.09 1.035c-.256.025-.566 0-.93-.065l-.632-.123c-.208-.042-.334-.073-.38-.106a.196.196 0 0 1-.079-.136 2.993 2.993 0 0 1 .057-.47l.35-1.869 1.119.207c.49.094.846.208 1.066.34.222.132.373.304.461.502zm.06-3.929c-.198-.11-.576-.215-1.13-.319L9.54 6.89l-.396 2.104.947.178c.495.09.869.119 1.121.08.253-.042.451-.133.605-.275a.973.973 0 0 0 .286-.546.988.988 0 0 0-.062-.613.89.89 0 0 0-.426-.43zM20 10c0 5.526-4.478 10-10.002 10C4.476 20 0 15.526 0 10S4.476 0 9.998 0C15.522 0 20 4.474 20 10zm-5.885-2.642c-.17-.37-.455-.682-.848-.939-.15-.101-.341-.19-.55-.27l.284-1.52-1.46-.274-.268 1.42-.939-.176.268-1.42-1.462-.275-.268 1.422-2.231-.417-.222 1.193.34.064c.23.04.379.09.45.147a.34.34 0 0 1 .138.198c.02.077.006.242-.042.502l-.901 4.81c-.047.25-.09.41-.139.474a.37.37 0 0 1-.202.137c-.088.024-.244.015-.47-.033l-.343-.058-.223 1.19 2.23.413-.264 1.42 1.462.275.263-1.42.831.154c.038.008.07.01.108.02l-.264 1.42 1.46.27.29-1.537a4.68 4.68 0 0 0 .68-.06c.542-.107.986-.329 1.336-.665.347-.33.565-.726.648-1.185a2.042 2.042 0 0 0-.077-1.09 1.997 1.997 0 0 0-.602-.869c-.189-.162-.48-.334-.862-.51.4-.06.732-.162.998-.318.269-.154.486-.348.653-.583.17-.233.284-.495.334-.778.08-.374.033-.76-.136-1.132z"/>
</svg>
