<svg xmlns="http://www.w3.org/2000/svg" width="21" height="20" viewBox="0 0 21 20">
    <path fill="#979799" fill-rule="nonzero" d="M10.04.339C4.498.339.002 4.82.002 10.349c0 4.42 2.877 8.172 6.867 9.494.502.092.685-.218.685-.483 0-.237-.009-.867-.014-1.702-2.793.605-3.382-1.341-3.382-1.341-.456-1.157-1.115-1.464-1.115-1.464-.911-.62.07-.609.07-.609 1.007.072 1.537 1.032 1.537 1.032.896 1.53 2.35 1.087 2.922.832.091-.647.35-1.088.637-1.339-2.229-.252-4.573-1.111-4.573-4.946 0-1.092.392-1.986 1.034-2.685-.104-.254-.448-1.27.098-2.65 0 0 .843-.268 2.76 1.028a9.65 9.65 0 0 1 2.514-.337 9.664 9.664 0 0 1 2.514.337c1.917-1.295 2.758-1.027 2.758-1.027.548 1.378.203 2.396.1 2.649.643.7 1.032 1.593 1.032 2.685 0 3.845-2.347 4.69-4.584 4.939.36.309.681.92.681 1.853 0 1.338-.012 2.417-.012 2.745 0 .268.18.58.69.482 3.986-1.326 6.86-5.075 6.86-9.495C20.08 4.82 15.585.338 10.04.338"/>
</svg>
