<svg xmlns="http://www.w3.org/2000/svg" width="20" height="20" viewBox="0 0 20 20">
    <g fill="none" fill-rule="nonzero">
        <circle cx="10" cy="10" r="10" fill="#979799"/>
        <path fill="#FFF" d="M16.852 9.14h-1.295V7.842h-1.035V9.14h-1.296v1.035h1.296v1.296h1.035v-1.296h1.295V9.139zm-8.27-.262v1.609h2.253c-.174.974-1.018 1.678-2.252 1.678-1.366 0-2.47-1.156-2.47-2.522 0-1.365 1.104-2.513 2.47-2.513.617 0 1.165.21 1.6.627l1.165-1.166c-.713-.67-1.652-1.078-2.765-1.078a4.129 4.129 0 0 0-4.13 4.13 4.134 4.134 0 0 0 4.13 4.13c2.39 0 3.965-1.677 3.965-4.043 0-.304-.026-.59-.078-.87 0 .018-3.887.018-3.887.018z"/>
    </g>
</svg>
