<?xml version="1.0" encoding="UTF-8"?>
<svg width="17px" height="15px" viewBox="0 0 17 15" version="1.1" xmlns="http://www.w3.org/2000/svg" xmlns:xlink="http://www.w3.org/1999/xlink">
    <!-- Generator: Sketch 46.2 (44496) - http://www.bohemiancoding.com/sketch -->
    <title>Shape</title>
    <desc>Created with Sketch.</desc>
    <defs></defs>
    <g id="Page-1" stroke="none" stroke-width="1" fill="none" fill-rule="evenodd">
        <g id="Vision" transform="translate(-214.000000, -2637.000000)" fill="#FFFFFF">
            <g id="CREW" transform="translate(105.000000, 2442.000000)">
                <path d="M124.397825,210 L110.229263,210 C109.55013,210 109,209.518116 109,208.923875 L109,196.075293 C109,195.481884 109.55013,195 110.229263,195 L124.397825,195 C125.076125,195 125.626255,195.481884 125.626255,196.075293 L125.626255,208.923875 C125.626255,209.518116 125.076125,210 124.397825,210 L124.397825,210 Z M111.881318,207.528991 L114.329856,207.528991 L114.329856,200.756811 L111.881318,200.756811 L111.881318,207.528991 L111.881318,207.528991 Z M113.122233,197.492648 C112.284137,197.492648 111.737336,197.997836 111.737336,198.66282 C111.737336,199.31199 112.268324,199.832991 113.089774,199.832991 L113.105587,199.832991 C113.959496,199.832991 114.490484,199.31199 114.490484,198.66282 C114.475504,197.997836 113.959496,197.492648 113.122233,197.492648 L113.122233,197.492648 Z M123.158575,203.646452 C123.158575,201.565777 121.950119,200.597847 120.339677,200.597847 C119.039672,200.597847 118.458747,201.254508 118.13333,201.716418 L118.13333,200.756811 L115.684792,200.756811 C115.71725,201.392665 115.684792,207.528991 115.684792,207.528991 L118.13333,207.528991 L118.13333,203.747156 C118.13333,203.545747 118.149143,203.342673 118.21406,203.198691 C118.390501,202.794207 118.794152,202.375576 119.469955,202.375576 C120.356322,202.375576 120.710037,202.996449 120.710037,203.906952 L120.710037,207.528991 L123.158575,207.528991 L123.158575,203.646452 L123.158575,203.646452 Z M118.116684,201.738889 C118.121678,201.731399 118.128336,201.723908 118.13333,201.716418 L118.13333,201.738889 L118.116684,201.738889 L118.116684,201.738889 Z" id="Shape"></path>
            </g>
        </g>
    </g>
</svg>