<svg xmlns="http://www.w3.org/2000/svg" width="22" height="19" viewBox="0 0 22 19">
    <g fill="none" fill-rule="nonzero">
        <path fill="#B5B8BD" d="M14.309.022c-.11-.051-.197 0-.197.124V14.92l6.474 3.233c.32.16.582 0 .582-.364V3.57a.178.178 0 0 0-.102-.168L14.31.02z"/>
        <path fill="#9B9B9B" d="M7.056 11.396l6.94-11.28a.243.243 0 0 1 .313-.087l6.706 3.35c.08.043.117.145.066.225L14.112 14.92l-7.056-3.524z"/>
        <path fill="#4A4A4A" d="M.78.32C.35.102.203.262.458.677l6.597 10.719 7.056 3.532L7.1 3.532a.318.318 0 0 0-.124-.117L.779.32z"/>
        <path fill="#000" d="M7.056 17.797c0 .356-.262.524-.582.364l-6.08-3.044A.775.775 0 0 1 0 14.483V.364c0-.24.175-.35.393-.24L6.97 3.415c.05.03.087.08.087.139v14.243z"/>
    </g>
</svg>
