<svg xmlns="http://www.w3.org/2000/svg" width="20" height="24" viewBox="0 0 20 24">
    <path fill="#9B9B9B" fill-rule="evenodd" d="M10.527 0C2.756 0 0 4.581 0 8.504c0 2.994 2.346 5.723 3.605 6.347a.5.5 0 0 0 .7-.304l.828-2.746a.5.5 0 0 0-.117-.491C4.738 11.02 4 10.249 4 8.993c0-3.438 2.408-5.492 6.442-5.492C13.558 3.501 16 5.694 16 8.493c0 2.576-2.072 5.513-3.889 5.513-2.114 0-2.139-1.919-2.141-1.991 1.189-1.127 1.585-3.51 1.585-4.047.001-.317.003-.906-.474-1.359-.424-.402-1.143-.606-2.137-.606-2.478 0-3.139 1.886-3.139 3.001 0 .841.507 1.962.53 1.992L3.874 21.162c-.028.146-.241 1.46.739 2.655a.5.5 0 0 0 .664.099c.474-.316 1.326-.964 1.71-1.755.445-.921 1.708-4.189 2.421-6.055l.09-.092c.011.009 1.237.994 3.14.994 5.434 0 7.362-4.582 7.362-8.504C20 5.345 18.005 0 10.527 0"/>
</svg>
