<svg xmlns="http://www.w3.org/2000/svg" width="24" height="18" viewBox="0 0 24 18">
    <path fill="#979799" fill-rule="evenodd" d="M16.694 14.961C15.033 15.66 13.498 16 12 16c-1.498 0-3.034-.34-4.695-1.039a.5.5 0 1 1 .389-.922c3.07 1.293 5.541 1.293 8.611 0a.5.5 0 0 1 .389.922M8.5 9c.827 0 1.5.673 1.5 1.5S9.327 12 8.5 12 7 11.327 7 10.5 7.673 9 8.5 9m7 0c.827 0 1.5.673 1.5 1.5s-.673 1.5-1.5 1.5-1.5-.673-1.5-1.5.673-1.5 1.5-1.5M24 8c0-1.654-1.346-3-3-3a2.983 2.983 0 0 0-2.59 1.518c-1.617-.881-3.668-1.429-5.91-1.501V1.103l5.513 1.033A1.997 1.997 0 0 0 20 4c1.102 0 2-.897 2-2s-.898-2-2-2c-.799 0-1.485.474-1.805 1.153L12.091.009a.508.508 0 0 0-.411.106.502.502 0 0 0-.18.385v4.517c-2.243.072-4.293.62-5.91 1.501A2.984 2.984 0 0 0 3 5C1.345 5 0 6.346 0 8c0 1.297.851 2.434 2.051 2.835-.034.219-.051.44-.051.665C2 15.084 6.486 18 12 18c5.513 0 10-2.916 10-6.5 0-.225-.018-.446-.052-.665A3.007 3.007 0 0 0 24 8"/>
</svg>
