<svg xmlns="http://www.w3.org/2000/svg" width="20" height="20" viewBox="0 0 20 20">
    <g fill="none" fill-rule="nonzero">
        <path fill="#979799" d="M12.966 1.237a1.78 1.78 0 1 0-3.388 1.101l4.606 14.17a1.781 1.781 0 0 0 2.166 1.103c.945-.272 1.522-1.276 1.22-2.204l-4.604-14.17M5.83 3.556a1.781 1.781 0 0 0-3.388 1.1l4.606 14.17a1.78 1.78 0 0 0 2.166 1.104c.946-.272 1.522-1.276 1.22-2.204L5.83 3.556"/>
        <path fill="#979799" d="M18.763 12.972a1.78 1.78 0 1 0-1.101-3.387L3.492 14.19a1.78 1.78 0 0 0-1.103 2.166c.272.946 1.276 1.522 2.204 1.22l14.17-4.604"/>
        <path fill="#4A4A4A" d="M6.446 16.974l3.386-1.1-1.1-3.387-3.387 1.1 1.1 3.387"/>
        <path fill="#979799" d="M16.444 5.836a1.781 1.781 0 0 0-1.1-3.387L1.173 7.054A1.78 1.78 0 0 0 .07 9.22c.272.946 1.276 1.522 2.204 1.22l14.17-4.604"/>
        <path fill="#4A4A4A" d="M4.127 9.839l3.387-1.101-1.1-3.387-3.388 1.101 1.1 3.387M11.262 7.52l3.388-1.1-1.101-3.388-3.387 1.1 1.1 3.388"/>
    </g>
</svg>
