<svg xmlns="http://www.w3.org/2000/svg" width="20" height="20" viewBox="0 0 20 20">
    <g fill="none" fill-rule="evenodd">
        <circle cx="10" cy="10" r="10" fill="#9B9B9B"/>
        <path fill="#FFF" fill-rule="nonzero" d="M14.45 5.062l-9.927 3.83c-.677.271-.673.649-.123.818l2.476.772.947 2.905c.115.318.058.444.392.444.258 0 .372-.118.516-.258.09-.089.633-.616 1.238-1.204l2.575 1.903c.474.261.816.126.934-.44l1.69-7.967c.174-.694-.264-1.009-.717-.803zm-7.186 5.243l5.581-3.521c.279-.17.534-.078.324.108l-4.778 4.311-.186 1.985-.94-2.883z"/>
    </g>
</svg>
