<svg xmlns="http://www.w3.org/2000/svg" width="14" height="20" viewBox="0 0 14 20">
    <path fill="#4A4A4A" fill-rule="evenodd" d="M13.316 18.633c-.018-.063-.453-1.54-.846-2.536a.412.412 0 0 0-.268-.246.413.413 0 0 0-.36.058c-.226.16-.593.253-1.005.253-1.04 0-2.504-.62-2.504-1.995V8.333h2.917c.23 0 .417-.186.417-.416V4.583a.416.416 0 0 0-.417-.416H8.333V.417A.416.416 0 0 0 7.917 0H4.583a.416.416 0 0 0-.416.417C4.167 3.425 2.28 5 .417 5A.416.416 0 0 0 0 5.417v2.5c0 .23.186.416.417.416h2.916V15c0 3.435 2.808 5 5.417 5 2.352 0 4.256-.834 4.336-.87a.418.418 0 0 0 .23-.497"/>
</svg>
