<?xml version="1.0" encoding="UTF-8"?>
<svg width="20px" height="15px" viewBox="0 0 20 15" version="1.1" xmlns="http://www.w3.org/2000/svg" xmlns:xlink="http://www.w3.org/1999/xlink">
    <!-- Generator: Sketch 46.2 (44496) - http://www.bohemiancoding.com/sketch -->
    <title>Shape</title>
    <desc>Created with Sketch.</desc>
    <defs></defs>
    <g id="Page-1" stroke="none" stroke-width="1" fill="none" fill-rule="evenodd">
        <g id="Vision" transform="translate(-176.000000, -2637.000000)" fill="#FFFFFF">
            <g id="CREW" transform="translate(105.000000, 2442.000000)">
                <path d="M90.6937691,196.776451 C89.9691269,197.078308 89.1901131,197.279858 88.3736016,197.371727 C89.2079245,196.903006 89.848197,196.160552 90.1500531,195.277483 C89.368227,195.710581 88.503906,196.025561 87.5833385,196.196175 C86.847447,195.459346 85.7965752,195 84.6350853,195 C82.4039748,195 80.5937754,196.695832 80.5937754,198.786326 C80.5937754,199.083495 80.6293982,199.373164 80.6987688,199.649709 C77.3408537,199.491282 74.3635398,197.983876 72.3705393,195.693707 C72.0227486,196.253359 71.824011,196.903006 71.824011,197.59765 C71.824011,198.910068 72.5374039,200.070621 73.6210862,200.749328 C72.9592525,200.728704 72.3367915,200.559028 71.7912005,200.274983 L71.7912005,200.32373 C71.7912005,202.158303 73.183301,203.688207 75.0319355,204.035998 C74.6935192,204.122242 74.3354165,204.16724 73.9679395,204.16724 C73.7073308,204.16724 73.4542216,204.144741 73.2076745,204.101619 C73.7213924,205.604337 75.2137991,206.700206 76.9818136,206.731142 C75.5990876,207.746391 73.8573214,208.351041 71.9636898,208.351041 C71.6374602,208.351041 71.3159178,208.333229 71,208.298544 C72.7877008,209.371914 74.911943,210 77.1936754,210 C84.6257109,210 88.6895194,204.229111 88.6895194,199.225986 C88.6895194,199.060996 88.6848322,198.898819 88.6773327,198.735704 C89.4666583,198.201362 90.151928,197.534842 90.6937691,196.776451 L90.6937691,196.776451 Z" id="Shape"></path>
            </g>
        </g>
    </g>
</svg>