<svg xmlns="http://www.w3.org/2000/svg" width="22" height="16" viewBox="0 0 22 16">
    <g fill="none" fill-rule="nonzero">
        <path fill="#4A4A4A" d="M21.525 2.366a2.73 2.73 0 0 0-1.941-1.92C17.866 0 10.994 0 10.994 0S4.247-.027 2.529.418C1.58.668.671 1.434.42 2.366c-.46 1.699-.419 5.22-.419 5.22s-.042 3.521.419 5.22c.251.932 1.173 1.697 2.11 1.948 1.717.46 8.464.417 8.464.417s6.746.028 8.464-.417c.95-.25 1.83-1.016 2.081-1.949.461-1.684.461-5.22.461-5.22s-.014-3.52-.475-5.219z"/>
        <path fill="#FFF" d="M9.103 11.38l5.31-3.414-5.31-3.414z"/>
    </g>
</svg>
