<?xml version="1.0" encoding="UTF-8"?>
<svg width="64px" height="75px" viewBox="0 0 64 75" version="1.1" xmlns="http://www.w3.org/2000/svg" xmlns:xlink="http://www.w3.org/1999/xlink">
    <!-- Generator: Sketch 46.2 (44496) - http://www.bohemiancoding.com/sketch -->
    <title>Icon</title>
    <desc>Created with Sketch.</desc>
    <defs>
        <linearGradient x1="40.1559783%" y1="-10.8666564%" x2="42.1648328%" y2="112.875511%" id="linearGradient-1">
            <stop stop-color="#05E7E6" offset="0%"></stop>
            <stop stop-color="#50E3C2" offset="100%"></stop>
        </linearGradient>
    </defs>
    <g id="Page-1" stroke="none" stroke-width="1" fill="none" fill-rule="evenodd">
        <g id="Vision" transform="translate(-1239.000000, -871.000000)" fill-rule="nonzero" fill="url(#linearGradient-1)">
            <g id="Icon" transform="translate(1239.000000, 871.000000)">
                <path d="M42.9557676,48.0013669 C42.9557676,38.5400764 35.5474204,30.9407696 26.5013326,30.9407696 C17.4528917,30.9407696 10.0442324,38.5397451 10.0442324,48.0013669 C10.0442324,57.4605861 17.4532038,65.0592304 26.5013326,65.0592304 C35.5471083,65.0592304 42.9557676,57.4602549 42.9557676,48.0013669 Z M53,48.0013669 C53,62.8725124 41.1762451,75 26.5013326,75 C11.824267,75 0,62.8730266 0,48.0013669 C0,33.1274876 11.8237549,21 26.5013326,21 C41.1767573,21 53,33.1280018 53,48.0013669 Z" id="Imported-Layers-Copy-13"></path>
                <path d="M53.0505767,1.9494233 L53.0505767,16.0505767 C53.0505767,17.1272135 53.9233632,18 55,18 C56.0766368,18 56.9494233,17.1272135 56.9494233,16.0505767 L56.9494233,1.9494233 C56.9494233,0.872786538 56.0766368,0 55,0 C53.9233632,0 53.0505767,0.872786538 53.0505767,1.9494233 Z M62.0505767,7.0505767 L47.9494233,7.0505767 C46.8727865,7.0505767 46,7.92336324 46,9 C46,10.0766368 46.8727865,10.9494233 47.9494233,10.9494233 L62.0505767,10.9494233 C63.1272135,10.9494233 64,10.0766368 64,9 C64,7.92336324 63.1272135,7.0505767 62.0505767,7.0505767 Z" id="Imported-Layers-Copy-15"></path>
            </g>
        </g>
    </g>
</svg>