<svg xmlns="http://www.w3.org/2000/svg" width="138" height="40" viewBox="0 0 138 40">
    <defs>
        <linearGradient id="a" x1="14.12%" x2="93.287%" y1="18.704%" y2="116.696%">
            <stop offset="0%" stop-color="#05E7E6"/>
            <stop offset="100%" stop-color="#50E3C2"/>
        </linearGradient>
    </defs>
    <g fill="none" fill-rule="evenodd">
        <rect width="137.6" height="40" fill="url(#a)" rx="10"/>
        <path fill="#FFF" d="M25.35 12.999c2.595 0 4.254 2.51 4.254 2.51s-2.53 1.373-2.53 4.356c0 3.54 3.178 4.569 3.178 4.569s-2.509 5.953-5.326 5.953c-1.584 0-1.69-.911-3.796-.911-1.828 0-2.445.911-3.838.911-2.658 0-6.092-5.803-6.092-10.522 0-4.903 3.477-6.866 5.656-6.866 1.914 0 2.711 1.126 4.253 1.126 1.297 0 2.318-1.126 4.242-1.126zM24.906 8c.382 2.403-1.797 5.375-4.402 5.278-.383-3.057 2.424-5.117 4.402-5.278zm19.665 6.251h1.77l4.703 12.035h-1.77l-1.315-3.624h-5.09l-1.348 3.624h-1.635L44.57 14.25zm-1.196 7.063h4.079L45.447 15.7h-.034l-2.04 5.613zm8.663-3.742h1.433v1.18h.034a2.145 2.145 0 0 1 1.112-1.054 4.152 4.152 0 0 1 1.669-.328c.674 0 1.261.123 1.761.37.5.248.916.582 1.247 1.003.332.422.582.908.75 1.458.169.55.253 1.135.253 1.753 0 .618-.081 1.202-.244 1.753a4.127 4.127 0 0 1-.742 1.441c-.331.41-.747.733-1.247.97-.5.235-1.082.353-1.745.353a4.306 4.306 0 0 1-1.5-.286 3.063 3.063 0 0 1-.733-.413 2.308 2.308 0 0 1-.581-.65h-.034v4.484h-1.433V17.572zm6.742 4.28c0-.404-.053-.8-.16-1.187a3.207 3.207 0 0 0-.489-1.037c-.219-.303-.5-.545-.842-.725-.343-.18-.745-.27-1.206-.27-.483 0-.893.096-1.23.287a2.466 2.466 0 0 0-.826.75c-.213.31-.368.66-.463 1.054a5.053 5.053 0 0 0-.144 1.196c0 .427.05.84.152 1.24.101.398.261.75.48 1.053.22.303.503.547.852.733.348.185.77.278 1.264.278s.907-.096 1.239-.287c.331-.19.598-.443.8-.758a3.3 3.3 0 0 0 .438-1.079c.09-.404.135-.82.135-1.247zm3.253-4.28h1.433v1.18h.034a2.145 2.145 0 0 1 1.112-1.054 4.152 4.152 0 0 1 1.669-.328c.674 0 1.261.123 1.761.37.5.248.916.582 1.247 1.003.332.422.582.908.75 1.458.169.55.253 1.135.253 1.753 0 .618-.081 1.202-.244 1.753a4.127 4.127 0 0 1-.742 1.441c-.331.41-.747.733-1.247.97-.5.235-1.082.353-1.745.353a4.306 4.306 0 0 1-1.5-.286 3.063 3.063 0 0 1-.733-.413 2.308 2.308 0 0 1-.581-.65h-.034v4.484h-1.433V17.572zm6.742 4.28c0-.404-.053-.8-.16-1.187a3.207 3.207 0 0 0-.489-1.037c-.219-.303-.5-.545-.842-.725-.343-.18-.745-.27-1.206-.27-.483 0-.893.096-1.23.287a2.466 2.466 0 0 0-.826.75c-.213.31-.368.66-.463 1.054a5.053 5.053 0 0 0-.144 1.196c0 .427.051.84.152 1.24.101.398.261.75.48 1.053.22.303.503.547.852.733.348.185.77.278 1.264.278s.907-.096 1.239-.287c.331-.19.598-.443.8-.758a3.3 3.3 0 0 0 .438-1.079c.09-.404.135-.82.135-1.247zm15.086-4.078c-.09-.865-.402-1.492-.936-1.88-.534-.387-1.216-.58-2.048-.58-.337 0-.668.033-.994.1a2.64 2.64 0 0 0-.868.337 1.77 1.77 0 0 0-.607.632c-.152.265-.228.593-.228.987 0 .37.11.67.33.901.218.23.51.419.876.565a7.37 7.37 0 0 0 1.238.362c.461.096.93.2 1.408.312.477.112.946.244 1.407.396.46.152.874.357 1.239.615.365.259.657.585.876.978.22.393.33.888.33 1.483 0 .64-.144 1.189-.43 1.644a3.537 3.537 0 0 1-1.105 1.112c-.45.287-.952.494-1.508.624a7.316 7.316 0 0 1-3.573-.06 4.724 4.724 0 0 1-1.585-.766 3.636 3.636 0 0 1-1.079-1.315c-.264-.534-.396-1.166-.396-1.896h1.517c0 .506.099.941.295 1.306.197.365.455.666.776.902.32.236.693.41 1.12.522.427.113.866.169 1.315.169.36 0 .722-.034 1.087-.101.365-.068.694-.183.986-.346.292-.163.528-.385.708-.665.18-.281.27-.641.27-1.08 0-.415-.11-.752-.329-1.01a2.415 2.415 0 0 0-.876-.633 6.416 6.416 0 0 0-1.24-.396c-.46-.1-.929-.205-1.406-.311-.478-.107-.947-.23-1.408-.371a5.094 5.094 0 0 1-1.239-.557 2.665 2.665 0 0 1-.876-.893c-.22-.365-.329-.823-.329-1.374 0-.606.124-1.132.371-1.575.247-.444.576-.81.986-1.096.41-.287.876-.5 1.399-.64.522-.141 1.059-.211 1.61-.211a6.43 6.43 0 0 1 1.719.219c.528.146.991.376 1.39.691.4.315.714.71.944 1.188.23.478.357 1.048.38 1.711H83.86zm5.713-.202h1.736v1.264h-1.736v5.41c0 .169.014.304.043.405.028.101.081.18.16.236a.708.708 0 0 0 .328.11c.14.016.323.025.548.025h.657v1.264h-1.095c-.37 0-.688-.025-.952-.076a1.399 1.399 0 0 1-.64-.278 1.188 1.188 0 0 1-.363-.573c-.079-.247-.118-.573-.118-.978v-5.545h-1.484v-1.264h1.484v-2.613h1.432v2.613zm2.849 4.365c0-.64.09-1.239.27-1.795.18-.556.449-1.04.809-1.45.36-.41.803-.733 1.331-.969.528-.236 1.135-.353 1.82-.353.697 0 1.307.117 1.83.353a3.83 3.83 0 0 1 1.322.97c.36.41.63.893.81 1.45.18.555.27 1.154.27 1.794 0 .64-.09 1.236-.27 1.787-.18.55-.45 1.03-.81 1.441-.36.41-.8.73-1.323.96-.522.231-1.132.346-1.829.346-.685 0-1.292-.115-1.82-.345a3.722 3.722 0 0 1-1.331-.961c-.36-.41-.63-.89-.81-1.441a5.724 5.724 0 0 1-.27-1.787zm1.517 0c0 .528.07.997.21 1.408.141.41.335.752.582 1.028.247.275.537.486.868.632.332.146.683.219 1.053.219.371 0 .722-.073 1.054-.22.331-.145.62-.356.868-.631.247-.276.441-.618.581-1.028.14-.41.211-.88.211-1.408 0-.528-.07-.997-.21-1.407a3.037 3.037 0 0 0-.582-1.037 2.476 2.476 0 0 0-.868-.64 2.584 2.584 0 0 0-1.054-.22c-.37 0-.721.074-1.053.22-.331.146-.62.36-.868.64-.247.281-.441.627-.581 1.037-.141.41-.211.88-.211 1.407zm8.579-4.365h1.348v1.837h.034c.348-.708.775-1.23 1.281-1.568.506-.337 1.146-.494 1.922-.471v1.516c-.573 0-1.062.08-1.467.236-.404.158-.73.388-.977.691a2.86 2.86 0 0 0-.54 1.104c-.112.433-.168.93-.168 1.492v3.877h-1.433v-8.714zm12.793 5.95c-.191.977-.612 1.713-1.264 2.208-.652.494-1.472.741-2.461.741-.697 0-1.3-.112-1.812-.337a3.572 3.572 0 0 1-1.29-.944 4.01 4.01 0 0 1-.783-1.45 6.985 6.985 0 0 1-.295-1.836c0-.663.101-1.27.303-1.82a4.35 4.35 0 0 1 .852-1.434c.365-.404.797-.719 1.297-.943a3.963 3.963 0 0 1 1.644-.337c.775 0 1.418.16 1.93.48.51.32.921.727 1.23 1.222a4.83 4.83 0 0 1 .64 1.618c.119.584.166 1.14.144 1.669h-6.523c-.011.382.034.744.135 1.087.1.342.264.646.489.91.224.264.51.475.86.632.348.157.758.236 1.23.236.606 0 1.104-.14 1.491-.421.388-.281.644-.708.767-1.281h1.416zm-1.382-2.428a2.931 2.931 0 0 0-.228-.96 2.456 2.456 0 0 0-.522-.784 2.45 2.45 0 0 0-1.761-.716c-.371 0-.706.064-1.003.193-.298.13-.554.307-.767.531a2.54 2.54 0 0 0-.506.784 2.984 2.984 0 0 0-.22.952h5.007z"/>
    </g>
</svg>
