<svg xmlns="http://www.w3.org/2000/svg" width="42" height="57" viewBox="0 0 42 57">
    <path fill="#FFF" fill-rule="nonzero" d="M38.529 28.323c-1.859-1.383-4.505-1.936-4.505-1.936s2.24-1.284 3.155-2.566c.916-1.283 1.374-3.27 1.45-4.302.077-1.032.255-5.358-3.155-7.848-2.638-1.927-5.661-2.691-9.72-2.94V0h-5.447v8.628H16.16V0h-5.445v8.628H0v5.59h3.15c.858 0 2.385.094 3.033.812.65.716.764 1.094.764 2.49v22.274c0 .528-.102 1.182-.56 1.61-.458.428-.916.527-2.01.527H1.12L0 48.397h10.714V57h5.445v-8.603h4.148V57h5.446v-8.745c1.408-.081 2.72-.187 3.486-.286 1.553-.2 5.065-.603 8.348-2.867 3.282-2.265 4.02-5.812 4.096-9.383.078-3.572-1.298-6.012-3.154-7.396zm-22.37-13.608s1.73-.15 3.436-.126c1.705.025 3.206.075 5.446.755 2.24.68 3.561 2.34 3.613 4.302.05 1.962-.815 3.27-2.341 4.1-1.527.83-3.638 1.283-5.624 1.357-1.985.076-4.53 0-4.53 0V14.715zm12.19 25.733c-1.247.68-3.741 1.283-6.159 1.458-2.417.177-6.03.101-6.03.101V30.461s3.46-.176 6.158 0c2.697.177 4.962.855 5.98 1.36 1.017.502 2.8 1.608 2.8 4.25 0 2.64-1.503 3.698-2.75 4.377z"/>
</svg>
