<svg xmlns="http://www.w3.org/2000/svg" width="14" height="14" viewBox="0 0 14 14">
    <path fill="#9B9B9B" fill-rule="nonzero" d="M7 0C3.14 0 0 3.14 0 7s3.14 7 7 7 7-3.14 7-7-3.14-7-7-7zm0 1.077A5.915 5.915 0 0 1 12.923 7 5.915 5.915 0 0 1 7 12.923 5.915 5.915 0 0 1 1.077 7 5.915 5.915 0 0 1 7 1.077zm-.05 2.692A3.224 3.224 0 0 0 3.719 7c0 1.79 1.44 3.23 3.23 3.23 1.293 0 2.397-.774 2.912-1.867l-.976-.454A2.132 2.132 0 0 1 6.95 9.154c-1.226 0-2.154-.928-2.154-2.154s.928-2.154 2.154-2.154c.861 0 1.587.508 1.935 1.245l.976-.454C9.346 4.544 8.24 3.769 6.95 3.769z"/>
</svg>
