<svg xmlns="http://www.w3.org/2000/svg" width="24" height="34" viewBox="0 0 24 34">
    <g fill="#FFF" fill-rule="nonzero">
        <path d="M23.37 3.994L19.952.553a1.808 1.808 0 0 0-2.604 0l-3.498 3.523a1.84 1.84 0 0 0 0 2.622l3.417 3.44a1.808 1.808 0 0 0 2.603 0l3.498-3.522a1.84 1.84 0 0 0 0-2.622zm-4.963 4.26l-2.848-2.867 3.133-3.154L21.539 5.1l-3.132 3.154zM12.671 14.85L8.36 10.506c-.895-.901-2.4-.901-3.295 0L.671 14.931c-.895.902-.895 2.417 0 3.318l4.312 4.343c.895.9 2.4.9 3.295 0l4.393-4.425c.895-.942.895-2.416 0-3.318zM6.366 20.46L2.502 16.57l4.19-4.22 3.864 3.892-4.19 4.22zM23.37 26.81l-3.377-3.44a1.808 1.808 0 0 0-2.603 0l-3.498 3.523a1.84 1.84 0 0 0 0 2.621l3.416 3.441a1.808 1.808 0 0 0 2.604 0l3.498-3.522c.692-.738.692-1.926-.04-2.622zm-4.963 4.261l-2.848-2.867 3.133-3.155 2.847 2.868-3.132 3.154z"/>
        <path d="M8.57 13.441l6.803-6.715L16.64 8.01l-6.803 6.715zM17.39 25.336l-8.136-7.742-1.18 1.352 8.136 7.742z"/>
    </g>
</svg>
