<svg xmlns="http://www.w3.org/2000/svg" width="21" height="16" viewBox="0 0 21 16">
    <g fill="#FFF" fill-rule="nonzero">
        <path d="M20.398 6.089a.597.597 0 0 0-.601.597v5.439c0 1.48-1.213 2.68-2.697 2.68H3.9a2.691 2.691 0 0 1-2.697-2.68V6.598A.597.597 0 0 0 .602 6 .597.597 0 0 0 0 6.598v5.527C0 14.264 1.751 16 3.9 16h13.2c2.153 0 3.9-1.74 3.9-3.875V6.686a.6.6 0 0 0-.602-.597z"/>
        <path d="M7.926 5.658l2.53 2.504V.538C10.456.24 10.698 0 11 0c.302 0 .544.24.544.538v7.624l2.53-2.504a.55.55 0 0 1 .383-.16c.141 0 .278.053.383.16a.533.533 0 0 1 0 .762l-3.457 3.42c-.101.1-.242.16-.383.16a.53.53 0 0 1-.383-.16L7.16 6.42a.533.533 0 0 1 0-.762.549.549 0 0 1 .766 0z"/>
    </g>
</svg>
