<svg xmlns="http://www.w3.org/2000/svg" width="15" height="12" viewBox="0 0 15 12">
    <path fill="#7F848B" fill-rule="nonzero" d="M13.15 0H1.832C.822 0 0 .821 0 1.832v7.735c0 1.01.821 1.832 1.832 1.832h11.315c1.01 0 1.831-.822 1.831-1.832V1.835A1.831 1.831 0 0 0 13.15 0zm.995 9.567a.996.996 0 0 1-.995.995H1.832a.996.996 0 0 1-.995-.995V1.835c0-.549.446-.995.995-.995h11.315c.548 0 .995.446.995.995v7.732h.003zM9.446 5.603l3.664-3.285a.42.42 0 0 0 .03-.592.42.42 0 0 0-.591-.03L7.497 6.228l-.986-.88c-.003-.003-.006-.006-.006-.01a.62.62 0 0 0-.068-.058l-4.01-3.589a.418.418 0 0 0-.592.034.418.418 0 0 0 .034.592l3.706 3.313-3.69 3.456a.42.42 0 0 0 .573.613l3.747-3.505 1.016.908A.418.418 0 0 0 7.78 7.1l1.044-.936 3.726 3.54a.418.418 0 0 0 .576-.607L9.446 5.602z" opacity=".752"/>
</svg>
