<svg xmlns="http://www.w3.org/2000/svg" width="37" height="38" viewBox="0 0 37 38">
    <g fill="none" fill-rule="evenodd">
        <circle cx="25.5" cy="2.5" r="1" stroke="#FFF" stroke-linecap="round" stroke-linejoin="round" stroke-width="4"/>
        <path fill="#FFF" fill-rule="nonzero" d="M15.5 38C6.94 38 0 31.06 0 22.5 0 13.94 6.94 7 15.5 7 24.06 7 31 13.94 31 22.5 31 31.06 24.06 38 15.5 38zm0-1.512c7.725 0 13.988-6.263 13.988-13.988S23.225 8.512 15.5 8.512 1.512 14.775 1.512 22.5 7.775 36.488 15.5 36.488zM32 12a5 5 0 1 1 0-10 5 5 0 0 1 0 10zm0-1.538a3.462 3.462 0 1 0 0-6.924 3.462 3.462 0 0 0 0 6.924z"/>
        <path fill="#FFF" fill-rule="nonzero" d="M19.141 18.135a.715.715 0 0 0 .284.58.735.735 0 0 1-.083-.045.757.757 0 0 1-.2-.535zm.2-1.18c.005-.356-.092-.613-.285-.898a6.232 6.232 0 0 0-.277-.373 9.743 9.743 0 0 1-1.648-2.628c-.807-1.857-.194-3.344 1.235-4.322a5.207 5.207 0 0 1 1.47-.707.739.739 0 0 1 .91.536.768.768 0 0 1-.52.94 4.077 4.077 0 0 0-1.041.506c-.876.6-1.176 1.328-.701 2.42a8.24 8.24 0 0 0 1.084 1.83c.054.072.11.143.182.234l.18.226c.147.187.25.324.344.465.597.886.703 1.762.322 3.159-.174.638-.897.703-1.254.327a2.712 2.712 0 0 0-.205-.121 5.553 5.553 0 0 0-.627-.289c-1.49-.582-3.156-.635-4.875.187-1.346.643-2.077 1.833-2.147 3.176-.059 1.114.378 2.024.866 2.157 1.84.475 2.835 1.336 3.143 2.973.033.184.063.399.097.692.016.13.09.799.112.995.049.411.096.753.15 1.077.19 1.124.463 1.913.828 2.326.368.411 1.038.688 1.656.616.79-.093 1.504-.714 2.055-2.06 1.216-2.727 1.767-6.8 1.004-9.32-.163-.536.272-1.064.811-.985 2.545.372 4.446.214 5.784-.263.454-.161.715-.31.806-.384a.726.726 0 0 1 1.04.127.782.782 0 0 1-.122 1.074c-.22.18-.627.411-1.24.63-1.36.484-3.15.682-5.408.461.474 2.858-.133 6.62-1.319 9.277-.738 1.806-1.886 2.804-3.244 2.963a3.483 3.483 0 0 1-2.916-1.102c-.608-.69-.96-1.71-1.195-3.097-.06-.354-.11-.72-.161-1.155-.024-.204-.098-.874-.112-.996a9.939 9.939 0 0 0-.082-.59c-.183-.97-.715-1.43-2.057-1.777-1.298-.356-2.068-1.963-1.977-3.72.1-1.893 1.145-3.594 3.005-4.483 2.117-1.012 4.187-.947 6.023-.23.108.042.21.085.306.127zM6.087 12.443a3.834 3.834 0 0 1 .732.686c.796.978 1.016 2.15.321 3.644-.38.817-.743 1.476-1.168 2.156-.015.023-.758 1.172-.937 1.485-.52.91-.771 1.761-.853 3.044-.062.873.11 1.52.771 3.42.107.308.174.506.24.709.741 2.263.624 3.272-.763 3.93-.364.172-.53.63-.368 1.02.16.392.586.57.95.397 1.23-.583 1.903-1.509 2.043-2.714.105-.901-.073-1.84-.501-3.147-.07-.214-.14-.42-.25-.737-.57-1.638-.724-2.213-.684-2.766.066-1.04.247-1.65.644-2.345.154-.27.869-1.375.904-1.432.459-.732.852-1.447 1.262-2.327.976-2.1.632-3.935-.527-5.357-.398-.49-.799-.82-1.088-1.003-.343-.216-.785-.092-.986.277-.201.37-.086.844.258 1.06z"/>
    </g>
</svg>
