<svg xmlns="http://www.w3.org/2000/svg" width="138" height="40" viewBox="0 0 138 40">
    <defs>
        <linearGradient id="a" x1="10.011%" x2="102.128%" y1="39.797%" y2="121.933%">
            <stop offset="0%" stop-color="#05E7E6"/>
            <stop offset="36.072%" stop-color="#20E5D9"/>
            <stop offset="100%" stop-color="#50E3C2"/>
        </linearGradient>
    </defs>
    <g fill="none" fill-rule="evenodd">
        <rect width="137.6" height="40" fill="url(#a)" rx="10"/>
        <path fill="#FFF" d="M91.13 23.943l-.918.876c-.212.118-.423.255-.633.353-.638.292-1.286.366-1.862.366-.613 0-1.574-.04-2.555-.758-1.362-.97-1.957-2.639-1.957-4.093 0-3.01 2.422-4.487 4.397-4.487.69 0 1.4.175 1.977.544.958.641 1.206 1.475 1.344 1.922l-4.511 1.844-1.478.116c.478 2.468 2.129 3.904 3.953 3.904.91 0 1.587-.3 2.207-.611 0 0 .125-.066.036.024zm-2.722-4.91l-3.493 1.534c-.02-.348-.058-.697-.058-1.025 0-2.097 1.44-2.702 2.206-2.702 1.035 0 1.902.896 1.902 1.672 0 .27-.19.387-.557.521zm-6.711 4.76c0 .754.133.872.764.93.328.04.656.057.98.096l-.71.428H79.35c.444-.582.52-.64.52-1.028v-.434l-.007-11.544h-1.494l1.438-.701h2.745c-.595.349-.773.56-.85 1.24l-.004 11.013zm-5.245-6.64c.44.366 1.36 1.144 1.36 2.62 0 1.438-.801 2.115-1.61 2.757-.247.253-.537.526-.537.95 0 .43.29.663.499.837l.693.541c.843.72 1.61 1.38 1.61 2.72 0 1.827-1.746 3.669-5.047 3.669-2.781 0-4.126-1.34-4.126-2.777 0-.7.344-1.69 1.48-2.368 1.19-.736 2.8-.834 3.664-.892-.27-.352-.577-.72-.577-1.323 0-.329.098-.525.192-.756-.21.02-.421.04-.613.04-2.036 0-3.186-1.536-3.186-3.05 0-.893.402-1.884 1.23-2.602 1.093-.911 2.398-1.068 3.435-1.068h3.954l-1.23.702h-1.191zm-1.36 8.62c-.157-.02-.252-.02-.442-.02-.174 0-1.21.037-2.013.31-.425.157-1.653.621-1.653 2 0 1.377 1.326 2.37 3.376 2.37 1.843 0 2.821-.894 2.821-2.097 0-.99-.633-1.513-2.089-2.563zm.552-3.69a1.952 1.952 0 0 1-1.303.544c-1.648 0-2.398-2.156-2.398-3.457 0-.504.098-1.03.422-1.434.306-.39.845-.643 1.343-.643 1.595 0 2.418 2.175 2.418 3.572 0 .351-.039.97-.482 1.418zm-11.09 3.415c-3.05 0-4.683-2.404-4.683-4.58 0-2.542 2.052-4.718 4.97-4.718 2.822 0 4.589 2.235 4.589 4.581 0 2.292-1.747 4.717-4.876 4.717zm2.4-1.571c-.442.62-1.208.988-1.96.988-2.325 0-3.262-3.164-3.262-5.083 0-.837.133-1.691.883-2.37a2.659 2.659 0 0 1 1.73-.66c2.38 0 3.185 3.262 3.185 4.972 0 .756-.112 1.532-.576 2.153zm-12.614 1.57c-3.05 0-4.68-2.403-4.68-4.579 0-2.542 2.052-4.718 4.97-4.718 2.82 0 4.585 2.235 4.585 4.581 0 2.292-1.745 4.717-4.875 4.717zm2.4-1.57c-.442.62-1.207.988-1.956.988-2.322 0-3.263-3.164-3.263-5.083 0-.837.133-1.691.883-2.37a2.647 2.647 0 0 1 1.727-.66c2.378 0 3.185 3.262 3.185 4.972 0 .756-.115 1.532-.575 2.153zm-8.3.897l-2.573.596c-1.042.166-1.978.313-2.97.313-4.962 0-6.853-3.696-6.853-6.589 0-3.532 2.68-6.807 7.268-6.807.97 0 1.904.144 2.755.379 1.348.383 1.979.856 2.373 1.132l-1.494 1.437-.63.142.449-.724c-.609-.601-1.727-1.711-3.85-1.711-2.839 0-4.98 2.183-4.98 5.37 0 3.423 2.445 6.643 6.366 6.643 1.152 0 1.745-.234 2.284-.453v-2.935l-2.717.148 1.44-.782h3.813l-.467.454c-.125.108-.142.145-.178.29a13.16 13.16 0 0 0-.036.878v2.219zm48.222-.798v4.946h-.971V16.387h.97v1.433c.633-.926 1.789-1.66 3.13-1.66 2.408 0 4.03 1.847 4.03 4.772 0 2.905-1.622 4.791-4.03 4.791-1.266 0-2.401-.66-3.13-1.697zm6.116-3.094c0 2.208-1.136 3.904-3.15 3.904-1.25 0-2.446-1.031-2.966-1.9v-4.028c.52-.867 1.716-1.862 2.966-1.862 2.014 0 3.15 1.682 3.15 3.886zm2.368-8.02h.97v12.585h-.97V12.912zm11.863 15.246c.208.094.562.151.787.151.593 0 1.007-.245 1.378-1.113l.708-1.623-3.824-9.186h1.083l3.28 7.96 3.249-7.96h1.098L120.104 27.5c-.484 1.145-1.245 1.696-2.291 1.696-.314 0-.728-.056-.97-.132l.166-.906zm-2.835-2.688a17.091 17.091 0 0 1-.15-.827 5.61 5.61 0 0 1-.046-.71c-.333.494-.805.905-1.407 1.23-.603.326-1.175.486-1.96.486-.947 0-1.68-.236-2.204-.713-.523-.477-.785-1.123-.785-1.941 0-.817.38-1.48 1.139-1.986.758-.51 1.739-.763 2.953-.763h2.264v-1.132c0-.652-.22-1.164-.658-1.536-.44-.372-1.058-.56-1.859-.56-.732 0-1.326.172-1.778.507-.448.341-.674.765-.674 1.275h-.993l-.02-.049c-.036-.688.275-1.291.936-1.813.659-.52 1.521-.782 2.583-.782 1.058 0 1.915.257 2.56.772.645.51.969 1.245.969 2.207v4.494a6.02 6.02 0 0 0 .249 1.84h-1.12zm-3.445-.716c.825 0 1.417-.187 2.023-.555.602-.367 1.011-.845 1.226-1.424v-1.75h-2.275c-.87 0-1.589.195-2.155.588-.567.391-.854.865-.854 1.415 0 .52.182.935.544 1.25.363.318.859.476 1.491.476zM12.516 28.932c-.313-.084-.516-.394-.516-.874V12.213c0-.444.172-.744.445-.853l7.786 8.83-7.715 8.742zm1.072-.336l9.372-5.312-2.283-2.589-7.09 7.9zm9.436-11.57l-9.241-5.24 6.908 7.884 2.333-2.645zm.627.355l3.62 2.052c.686.389.692 1.015 0 1.407l-3.711 2.104-2.421-2.763 2.512-2.8z"/>
    </g>
</svg>
