<svg xmlns="http://www.w3.org/2000/svg" width="37" height="38" viewBox="0 0 37 38">
    <g fill="#FFF" fill-rule="nonzero">
        <path d="M8.842 11.72l5.344 5.344 7.112-7.111-5.344-5.344-7.112 7.111zm7.819-9.232l6.758 6.758a1 1 0 0 1 0 1.414l-8.526 8.526a1 1 0 0 1-1.414 0l-6.758-6.759a1 1 0 0 1 0-1.414l8.525-8.525a1 1 0 0 1 1.415 0z"/>
        <path d="M13.822 20.005a.786.786 0 0 0 0-1.125l-6.674-6.743a.755.755 0 0 0-1.099 0 .786.786 0 0 0 .002 1.127l6.616 6.742a.822.822 0 0 0 1.155 0zm-1.866.704l-6.617-6.743a1.786 1.786 0 0 1 0-2.532 1.754 1.754 0 0 1 2.52 0l6.674 6.743c.702.709.702 1.823 0 2.532a1.822 1.822 0 0 1-2.577 0zM24.115 9.548a.785.785 0 0 0 .001-1.123l-6.675-6.688a.755.755 0 0 0-1.099 0 .786.786 0 0 0 .002 1.127l6.616 6.742c.316.318.829.307 1.155-.058zm-1.866.76l-6.617-6.742a1.786 1.786 0 0 1 0-2.532 1.754 1.754 0 0 1 2.519-.002l6.675 6.688c.702.709.702 1.823.018 2.513a1.774 1.774 0 0 1-2.595.076zM36.145 32.085a2.343 2.343 0 0 1-3.329 0L16.811 15.913a.75.75 0 0 1 0-1.055l2.263-2.286a.75.75 0 0 1 1.066 0l16.005 16.172c.915.925.915 2.5 0 3.34zm-2.262-1.055c.328.332.867.332 1.221-.025.303-.278.303-.874-.025-1.206L19.607 14.166l-1.207 1.22L33.883 31.03zM23.042 31.557c0-1.014-.859-1.895-1.852-1.936H3.658a1.919 1.919 0 0 0-1.908 1.936v4.107h21.292v-4.107zm1.5 0v4.857a.75.75 0 0 1-.75.75H1a.75.75 0 0 1-.75-.75v-4.857c0-1.898 1.522-3.436 3.408-3.436l17.562.001c1.823.074 3.322 1.61 3.322 3.435z"/>
    </g>
</svg>
