<svg xmlns="http://www.w3.org/2000/svg" width="78" height="77" viewBox="0 0 78 77">
    <g fill="#7F848B" fill-opacity=".721" fill-rule="nonzero">
        <path d="M.834 46.87l-.459.188-.083-.293.626-.293c-.23-.481-.438-.9-.584-1.276l.417-.628A1.377 1.377 0 0 0 .417 43.5l-.25.167c-.188-.272-.209-.565-.104-.879l.5-.313c0-1.57-.146-3.997-.459-7.261.271-.419.417-.983.438-1.695.313-.125.438-.293.397-.481l-.376.125-.083-.293c.313-.355.75-.962 1.314-1.799-.167-.377-.292-.69-.376-.942l.605-.167a7.308 7.308 0 0 1-.626-.774l-.104-.168.75-.48.147-1.403.292-.083-.188-.46.292-.084-.188-.46.292-.084c.063-.042.063-.126.021-.252-.041-.125-.02-.188.063-.167l-.125-.377.292-.083a3.42 3.42 0 0 1 .48-.9l-.188-.46.667-.44-.125-.753 1.022-1.15-.125-.377c.667-.44 1.293-.921 1.877-1.465l-.084-.67.772-.983-.146-.272.605-.523.083-.419.376-.125-.084-.293.855-.314-.292-.628c.396-.104.751-.25 1.022-.418l-.125-.753.688-.21 1.606-1.527-.25-.544.25-.168.167.252a1.29 1.29 0 0 0 .542-.252l.25-.167c.084-.356.584-.858 1.523-1.465.334-.209.792-.606 1.397-1.213.605-.586 1.001-.984 1.168-1.172l-.042-.44 1.168-.753.084-.062 4.317-2.218-.188-.46.25-.168c.25-.23.584-.356 1.064-.356l.146.398c.084.02.167-.042.25-.168l-.083-.292c.5-.314.897-.23 1.23.272.063.104.105.209.084.292-.647.105-1.022-.041-1.126-.46.041.44.208.816.48 1.11l-.25.166.083.67.229-.02.354-.357-.104-.167.626-.293.334.147.5.041.02.586c-.374.168-.687.21-.958.147l-.188-.46-.23.02a1.87 1.87 0 0 1-.187.251l.396.44-.292.084-.271-.419-.23.021-.229.732c-.542.356-1.418.795-2.628 1.298-1.21.502-2.085.941-2.628 1.297-.771.502-1.668 1.234-2.69 2.218-1.356 1.276-2.231 2.071-2.565 2.385l.083.293-.542.23.167.251-.522.46.146.252-2.314 1.862.041.44-.417.271.167.251-.688.921c.187.042.187.147.041.335-.166.188-.166.314-.041.377-.313.355-.668.962-1.085 1.778-.792.586-1.355 1.235-1.69 1.925.501 1.025.543 1.862.105 2.532l.042 1.506-.292.084.188.46-.25.168c-.272.188-.501.376-.689.565l.167.25c-.083-.02-.188 0-.292.085l.083.292c-.75.419-1.313.754-1.71 1.005-.23.628-.333 1.36-.333 2.218l-.292.083.166.252-.584.376-.125 3.704-.27.293c-.21 7.93 2.001 15.462 6.631 22.618 1.94 2.992 4.505 5.608 7.675 7.868l.542-.23.167.606c1.022.754 2.086 1.11 3.191 1.11l.438.669.438-.398.376-.125.437.67.438.669.376-.126.125.377-.25.167.438.67.25-.167.25.544.5.041c.793.754 2.024 1.319 3.713 1.716 2.21.607 3.546 1.046 4.004 1.277h.355l-.313-.503.375-.125c.584.418 1.815.544 3.692.44 1.251-.105 2.544-.252 3.858-.398.188.272.25.627.209 1.046-.084.125-.125.293-.167.46l-.75.481.083.293a7.302 7.302 0 0 1-1.857.398l-.125-.377-.187-.104c-.146.502-.167.711-.063.627a1.147 1.147 0 0 1-.355-.355c-.375.167-1.751.146-4.129-.021a1.185 1.185 0 0 1-.542-.481l-.021-.23.334-.566-.126-.376-.542.23c.063.356.063.711-.02 1.067a.924.924 0 0 1-.293-.272l-1.022.063-.125-.377-.667.084c-.209-.188-.834-.481-1.877-.9l-.75.126-.314-.502c-1.772-.419-3.232-1.005-4.421-1.737-.876-.147-2.148-.46-3.796-.963-.542-.837-1.543-1.715-3.003-2.636-.396.105-1.001-.105-1.794-.607l-.27-.063-.376-.23-.605.168-.938-1.632-.292.083c-.355-.544-1.565-2.008-3.65-4.352l-.25.167c-1.23-2.03-2.983-5.105-5.256-9.206-.313-.586-.563-1.653-.75-3.16-.272-1.569-.585-2.678-1.023-3.326zm64.027 9.06c-.688 1.946-1.314 3.117-1.877 3.473l-.667.084c-.25-.147-.543-.126-.876.104-.438.293-.897.9-1.398 1.842.084.502.167 1.004.209 1.506.062.523-.084.92-.438 1.235l-3.942.439c.209.188.48.398.876.607l-.417.272.125.753c-.396.105-.75.251-1.022.419l.48 1.109-.667.083c.083.021.146.105.166.251-.083.126-.166.189-.25.168l.125.376-.333.21.166.25a5.056 5.056 0 0 1-.876.817l-.25-.544-.25.167.042.795c-.48.23-.939.377-1.377.419l-.125-.377-.25.167.25.544c-.334.21-.667.356-1.022.419l-.083-.293-.084.063c-.167.104-.167.272-.041.502l-.543.251-.27-.418-.293.083a.81.81 0 0 1 .292.628c-.709.23-1.877.67-3.483 1.34l-.125-.378c-.709 0-1.251.147-1.585.44l-.167.104-.062.272.417.084.98-.293.167.251-1.022.419.188.46-.543.251.084.293.626-.293.083.293c.375-.02.813-.084 1.272-.23l-.104-.523h.354l.313.502.292-.084.125.377.376-.126-.313-.502-.271-.418c.041-.188.104-.314.23-.377.166-.104.333-.104.5.042l.23.9.583-.021-.188-.46.46-.189.187.46.375-.125c.105.167.23.293.355.356.167.125.188.042.062-.272l.668.104c2.002-.523 4.296-1.59 6.882-3.201l.772-.084.083-.063c.417-.062 1.043-.376 1.877-.92.46-.021.876-.126 1.23-.293l.293-.649-.167-.25c1.251-.503 2.044-.461 2.398.083l.063.084c-.396.104-.751.23-1.064.334l-.083.419.208.335c.376-.168.71-.356 1.043-.565.334-.21.667-.482 1.022-.775l.23-1.088-.084-.67 1.522-.752-.291-.628c.145 0 .333.084.52.251.501.146.877.084 1.19-.188l.167-.105-.188-.46.459-.189-.48-.753c.063-.272.146-.44.25-.523.104-.063.25-.042.417.084l.313 1.213.25-.167-.229-.9.417-.104.292.46.334-.565.042-.502c.104-.063.208.02.291.272l.167-.105a1.91 1.91 0 0 0 .522-.46l-.25.167-.376-.586.417-.272v-.355l.25-.168c-.396-.125-.75-.418-1.021-.858l.667-.083-.25-.544.25-.168.167.251.688-.209.167.251.167-.46-.334.21c-.02-.147.042-.294.167-.461-.167-.377-.292-.69-.376-.942l.146-.335-.02-.585.25-.168-.125-.376.542-.252-.167-.606.25-.168c.334-.209.689-.523 1.043-.92l-.438-.67.522-.46.083.293.334-.21c-.46-.711-.292-1.61.5-2.678l-.083-.293c.375-.25.605-.879.688-1.862l.355-.356-.188-.46.292-.084c.083-.607.167-1.485.271-2.657l.292-.084c.063-.042.083-.125.063-.272-.021-.146.02-.209.104-.188.187-1.15.375-2.888.521-5.19l.292-.083-.25-.711.292-.084c.042-2.239-.292-5.608-1.001-10.085-1.627-5.169-3.754-9.793-6.403-13.894-1.501-2.322-4.484-5.042-8.905-8.14-4.442-3.096-7.884-4.895-10.345-5.419L42.691.46 42.295 0l-.5.314-.417.272-.084-.293c-1.043-.021-2.92.167-5.61.586l-.083-.293c-.334-.021-.689.02-1.106.125l.084.293-.376.126c.167.377.25.753.25 1.13-.229 0-.458-.042-.688-.147l-.521.105-.188-.46-.146-.021-.042.502.376.586 1.48-.607.293.628-.584.376.166.251.501-.313c-.167-.126-.23-.293-.188-.46.397-.105.835-.105 1.293-.022l.25.544a18.7 18.7 0 0 0 4.005-.711c.042-.188 0-.314-.125-.377l.5.042.271.419c3.963-.063 7.216.48 9.782 1.653.48.25 1.251.418 2.315.502l.292.627.292-.083.312.502.46-.188.104.167c.104.167.25.335.458.523 1.92.398 3.754 1.34 5.506 2.783 1.773 1.444 3.066 3.076 3.921 4.875l.5.042.793 1.611.292-.083.313.502c.209.335.355.67.417 1.025l-.375.126.459.188c-.021-.147.041-.293.166-.46 1.252 1.088 2.253 2.197 3.004 3.368 1.647 2.553 3.024 6.026 4.15 10.4l-.25.167.292.628-.647.648.042.795.459-.188c.396.607.646 2.406.792 5.398l-.605.168.313.858c-.521.9-1.251 2.615-2.169 5.189l-.25.167.271.774-.292.084c.23 1.57-.313 3.515-1.648 5.796.084.02.146.105.167.251-.083.126-.167.188-.25.167-.167.586-.459 1.277-.876 2.114l-.605.523c-.438.293-1.147.523-2.148.69-1.418.377-2.19.565-2.336.586l.25.189.084.25zM41.503 75.284l.292-.083.292.627.375-.125.167.25 1.043-.208.167.25-.814.189.188.46-.292.084-.271-.774-.46.188-.124-.377-.292.084-.271-.565z"/>
        <path d="M54.666 45.766l.062-.083a9.34 9.34 0 0 1-.083 3.72c-.353 1.558-1.037 3.013-2.034 4.363a14.601 14.601 0 0 1-3.653 3.491c-1.432.977-3.092 1.683-5.001 2.161-1.91.457-3.882.582-5.895.333a15.16 15.16 0 0 1-4.898-1.434 14.772 14.772 0 0 1-4.026-2.868 18.725 18.725 0 0 1-2.968-3.948 18.833 18.833 0 0 1-1.889-4.737 20.83 20.83 0 0 1-.643-5.195 10.124 10.124 0 0 1-1.868-.437c-.623-.207-1.287-.54-1.993-1.018a8.568 8.568 0 0 1-1.868-1.704c-.54-.665-.975-1.537-1.328-2.639-.353-1.08-.519-2.306-.519-3.636 0-.706.187-1.6.581-2.66.395-1.06.997-2.223 1.827-3.47a24.446 24.446 0 0 1 2.885-3.574c1.1-1.143 2.428-2.16 4.005-3.054a15.6 15.6 0 0 1 4.96-1.85c-.02.083-.04.146-.04.187-.022-.041-.063-.062-.084-.02-.02.041-.041.062-.062.041l-.062-.125c-.063 0-.125.063-.146.208l-.083-.124c-.02 0-.041.02-.041.041 0 .042.02.062.041.125.021.041.021.083-.02.104a.14.14 0 0 0-.125-.083.114.114 0 0 1-.104-.063c-.02.021-.02.042 0 .104h.021c.02 0 .042.02.042.042.02.02.02.02.02.041-.02.021-.041.021-.062.021l-.041-.02c0-.022 0-.042-.021-.084 0 .02-.02.042-.083.083a.28.28 0 0 0-.125.146.607.607 0 0 0-.041.187c.062-.104.104-.146.124-.146v.104c.021.02.042.02.063-.02v.166l.083.083c-.021.083-.021.187-.021.332.041.02.062-.041.062-.145a.456.456 0 0 1 .062-.167l.042.021c0 .021.02.042.041.104 0-.02 0-.041.021-.062.02-.042.02-.063.02-.083l.042-.021c.063.145.063.228 0 .228.063 0 .104-.062.166-.187.042-.124.104-.166.187-.145 0 .02 0 .042.021.104.02.062.02.104.041.104v-.104a.366.366 0 0 0 .021-.125c.021-.02.063-.02.125 0 .062.021.083.021.083-.02.02.02.02.041 0 .062-.021.02-.021.02-.021.041.02 0 .042-.02.062-.041.021-.042.021-.063.042-.125.02-.041.041-.062.062-.062 0 .02.042.062.104.166.02-.042.041-.062.062-.104a.453.453 0 0 1 .104-.083c.041-.042.083-.062.104-.083.02.062.02.104.041.125.02.02.02.02.042 0 .02-.021.041-.021.062 0 .02 0 .041.041.062.083.062 0 .062-.042.042-.146-.021.021-.042 0-.083-.062.062-.02.083-.083.062-.166l.083.104c-.02-.125-.042-.187-.02-.187.04.02.061.02.061-.042 0 .02 0 .062.021.125 0 .062.021.083.021.124l.042-.083c.02.021.02.104.02.229l.063.062c.02-.228.062-.332.124-.312 0 .084 0 .146.02.167l.084-.125.02.104c.021-.042.063-.062.125-.062v.041l.042-.104c.041-.083.083-.062.124.083.02.063.02.104.042.125v.02c.02.063.041.063.083.042.041-.02.062-.041.083-.02-.021-.021-.021-.063-.042-.084 0-.041-.02-.083-.062-.124v.083c-.02.062-.02.083-.042.083-.02-.042-.02-.083 0-.145.021-.063.021-.104.021-.146.02-.02.062.083.125.27.02-.02.041-.02.103 0 .042 0 .083 0 .125-.02v-.042c0-.166.02-.229.042-.208.02 0 .02.02.041.042l.02.062c.022-.042.022-.062.042-.062-.02-.042-.041-.083-.02-.125.02-.02 0-.062-.021-.104h.041l.042.042c.02.02.02.062.041.083 0 .02.021.062.021.083l.062.041c.042.021.063.021.083 0 0 .021-.02.042-.041.084-.02.041-.02.083.02.103l.063-.228h-.042c.021-.042.063-.042.125.062.02.063 0 .083-.02.083.02.021.061 0 .082-.062v-.042c0-.02 0-.062-.02-.166l-.021-.145.062.124.083-.02c.02.02.02.02.02.041.021 0 .021 0 .021-.02l.042.02c-.02-.166 0-.27.041-.29 0-.022-.02-.022-.041-.042v-.063l.187.083c-.021.021-.042.042-.063.042.021.062.042.062.104.042.042-.021.083 0 .104.062a.222.222 0 0 1-.062.104c-.021.02-.042.041-.083.041-.042 0-.063.021-.083.021a.133.133 0 0 1 0-.124c.02-.021.041-.042.041-.084l-.062-.041c0 .02-.02.062-.042.104-.02.041-.02.104-.02.166l-.042-.042v.021c0 .021 0 .042.02.063l.022-.042a.67.67 0 0 0 .332.062v1.04c.02.02.02.04.02.082.021 0 .042-.041.042-.104 0-.062 0-.145-.02-.228l-.021-.125.02-.02h.042l.02.083c.021-.021.021-.042.021-.063 0-.041 0-.062-.02-.083 0-.02 0-.02.02-.02.021-.021.021-.042 0-.042-.02 0-.02-.021-.02-.042.02.021.02 0 .041-.062.02-.062.042-.104.062-.104 0 .125 0 .187-.02.187l.062.104-.083.041-.062.25c0-.021.02-.042.083-.042v.104c.02-.02.02 0 .041.042.02.041.02.041.042-.021-.021-.187-.042-.27-.042-.291l.083.187c.042.145.062.229.083.229l-.083-.333.042.02v-.04l-.063-.105-.02.021c.02-.041.02-.083.02-.104 0-.041-.02-.062-.02-.104 0-.041 0-.062.02-.062v.125c.104-.083.166-.021.208.166l-.042.02c-.02 0-.041.022-.062.042.02.042.02.042.042.021.02-.02.02-.041.041-.041a.23.23 0 0 0 0 .166l.042.041.02-.104-.02-.041v-.042c.02-.145.083-.166.166-.104v.312c.02 0 .02-.062.041-.166.042-.125.062-.187.083-.187-.02.125-.041.228-.041.312l.062-.208c.02.02.041.02.083 0h-.02c.02-.083.04-.083.061-.042.021.042.042.063.063.042l-.021.041c.041.042.083.021.125-.083v.083l.103-.187c-.02.021-.062.021-.103-.02-.042-.042-.063-.042-.104 0 .02-.042.041-.104.062-.167l.062-.187c.021.021.021.042.021.104l.062-.208v.063c.021.02.042.02.063-.042.062-.124.083-.166.103-.166 0 .083-.02.166-.083.27 0 .062-.02.104-.083.125-.062.041-.083.083-.062.145l.104-.145c.02.02.02.02.02.041s0 .042-.02.042c.02 0 .02-.02.041-.083.042 0 .063.02.063.062 0 .042 0 .083-.021.125-.02.041 0 .083.041.124l-.062.125-.041-.041-.021.124c.02.021.062 0 .083-.062.02-.062.062-.146.104-.27-.021.041-.042.02-.042-.042.02-.083.02-.145.02-.166.022-.042.022-.042.022 0l.062-.083c0 .083.02.166.041.27.021.104.021.208 0 .312.021.02.042.041.063.02.02-.02.041-.02.083-.041.041-.02.062-.02.103-.02l-.02.082c0 .104.02.083.083-.041a.456.456 0 0 1 .062-.167c0 .021 0 .042.02.084.021.041.021.062 0 .103.104-.145.167-.207.187-.207-.041.228-.062.332-.041.332l.041-.104h.042l.042.021v.02c.02.022.02.022.041-.02.02-.062.042-.104.02-.125l.063-.062-.02.042.082-.084c.042-.041.083-.062.104-.103a.157.157 0 0 1 .083-.042c-.02.02-.02.062-.041.145-.021.063-.042.084-.063.104a.392.392 0 0 0 .042-.166c0-.02-.02 0-.062.042l-.042.062c.02-.02.02-.02.02-.042l-.02.042-.124.29a.667.667 0 0 1 .145-.082c.041 0 .104-.042.166-.166.02.02.041.02.083.02.041 0 .062.021.083.042.02-.02.02-.042.041-.062l-.041.166-.02.02c0 .021 0 .021-.022.042 0 .02-.02.042-.02.042-.021.02-.042.02-.063.041l-.041.042v-.042l-.042.042c0 .02-.02.041-.062.083h-.02l.04.02c.022-.02.022-.02.022 0 0 0 0 .021-.021.042.083-.062.124-.083.124-.041l-.02.02c0 .021-.021.042-.042.084h.083c-.02 0-.02-.021 0-.042.042-.042.062-.062.083-.062l.062-.063c.021-.02.063-.041.083-.062.021-.02.042-.02.063-.042.02-.02.02-.02.041-.02.042 0 .02.041-.062.124-.02.021-.062.042-.083.063-.02.02-.062.041-.083.062l-.042.042c.063-.042.083-.042.083-.021l-.02.041h.041l.25-.207.04.041-.062.02h.063c-.021.022-.021.022-.042.022l-.02.02c.02-.02.041-.02.062-.041.02-.02.041-.02.062-.042.02-.02.02-.02.02-.041.042 0 .042.02 0 .062-.02.02-.04.042-.062.062-.02.021-.041.021-.062.042 0 .02.021.042.042.02l.041-.04.042-.042.104-.042c-.021 0-.042 0-.021-.02.041 0 .062.02.041.082h.104c.042 0 .104-.02.145-.041l.083-.042c.021-.02 0-.02-.041 0-.042.021-.062.021-.042 0 .021 0 .021-.02.042-.041.041-.021.062-.042.083-.063l-.145.021.103-.104h.083v-.041.062l-.02.02a.132.132 0 0 1-.125 0c-.041-.02-.083-.02-.104-.02a.162.162 0 0 0 .083-.083c0-.042.021-.062.063-.083.02 0 .041.02.02.041.021-.02.042-.041.042-.062 0-.02 0-.041.02-.062-.02.02-.04.02-.103.041-.042.021-.083.042-.104.063h-.02c-.021-.021-.042-.042-.021-.063-.021.021-.063.042-.146.063.021-.021.021-.042.042-.063l.145-.041c.02.02.02.02.042 0l.041-.042.332-.104-.041.104c-.021.063 0 .042.062-.02.083-.084.124-.104.124-.104l-.041.124c0 .021.02.021.083.021.02-.02.041 0 .02.02v.063c.042-.02.084-.041.146-.062-.062-.021-.083-.042-.083-.063.062-.02.124-.02.145 0l.104-.083c.02-.02.042-.02.062 0 .021.021.021.021 0 .042 0 .02.021.041.063.02l.062-.082c-.02-.021-.042-.021-.062 0-.042-.021-.042-.042-.021-.084a.25.25 0 0 1 .104-.103c0-.021.02-.021.041-.042.02-.02.062-.02.104-.042.041-.02.062-.041.083-.041-.02-.02-.062 0-.125 0-.062.02-.083.02-.103.02v-.04h-.042c.02 0 .02-.022.02-.042.022-.042.042-.084.084-.084l.02.021v-.104c.644.146 1.453.333 2.429.603.975.25 1.847.478 2.594.686a79.54 79.54 0 0 0 2.595.644c.975.228 1.847.415 2.635.54.79.145 1.599.25 2.47.353.872.104 1.64.125 2.346.083.705-.041 1.37-.145 2.013-.29.643-.146 1.224-.375 1.722-.728a4.45 4.45 0 0 0 1.246-1.247c.415-.644.643-1.288.685-1.89.041-.603-.063-1.143-.312-1.58a4.698 4.698 0 0 0-.954-1.184 8.04 8.04 0 0 0-1.1-.831c-.353-.187-.644-.312-.893-.374 1.1-.748 2.055-.81 2.885-.187.747.54 1.162 1.413 1.204 2.639.041 1.246-.332 2.452-1.121 3.615-.913 1.372-2.366 2.805-4.359 4.28-.809 0-1.37.084-1.701.27-.332.188-.52.603-.602 1.227-.021.02-.042.02-.063 0a.338.338 0 0 0-.124-.062c-.042-.021-.083-.042-.104-.021-.02.02-.104.02-.228-.021a.322.322 0 0 0-.311.042c-.083.062-.125.249-.104.54-1.266.644-2.47 1.018-3.59 1.163-1.1.125-2.574.042-4.484-.207-1.889-.25-3.57-.54-5.022-.873-1.453.831-2.72 1.704-3.778 2.639a16.12 16.12 0 0 0-2.822 3.22c-.81 1.206-1.433 2.598-1.848 4.136-.415 1.537-.622 3.262-.622 5.132 1.785-.124 3.694-.831 5.749-2.099 2.054-1.267 3.549-2.638 4.462-4.114a6.756 6.756 0 0 1 2.968 1.018l-.104.063h-.041l-.083.228.103-.187c.021.021.063-.02.146-.083h.02l-.041.062.208.104c0-.02 0-.02.02-.041l.353.25c-.041.062-.29.352-.726.913.02-.02.02-.041-.021-.041-.02 0-.042 0-.083.02.062-.082.083-.124.062-.145.02-.041-.041-.041-.145.042-.062.02-.083.041-.083.02l.041-.02c0-.083-.062-.083-.186 0 .02-.042.062-.083.083-.104.02-.02.041-.02.062 0 .02.02.041.02.062 0a.222.222 0 0 0 .062-.104c.021.042.042.062.063.042.02 0 .062-.021.103-.042.042-.02.063-.02.083-.02-.041-.125.021-.27.166-.458-.083.02-.166.104-.27.27-.103.146-.165.229-.228.229l-.041-.063-.208.208c-.02 0 0-.041.042-.104.062-.062.062-.104.041-.104-.02.042-.062.042-.083.021-.02-.02-.041-.02-.083 0 .063-.083.063-.124.042-.166a.265.265 0 0 1-.083.125c.041-.083.083-.146.104-.146h.041l.042-.041c.02-.021.02-.042.041-.083-.041-.021-.145.062-.29.249.02 0 .02 0 .041.02 0 .021 0 .042-.02.042-.021.021-.021.021-.042 0-.021 0-.042 0-.062.042.02.02.041 0 .062-.021-.021.042-.021.083-.042.125 0 .041 0 .083.021.083.042-.021.083-.042.104-.021.02 0 .062.02.104.042.041.02.062.041.083.041l-.021.02v.022c.02.02.062.041.083.083.02.041.041.062.083.083.02.02.062.02.124.02l.187-.062a.404.404 0 0 0 .166-.166c.062-.104.125-.187.166-.29a.444.444 0 0 1 .104-.167c.02 0 .042 0 .062-.02.042-.022.063 0 .042.04l-.083.063c.041 0 .083-.02.124-.041.042-.042.063-.063.083-.063.021-.02.021-.02.042 0 .041-.02.062-.02.041-.041-.02-.021 0-.042.042-.083 0 .02.041 0 .104-.063.062-.041.103-.083.124-.104l.042.042v.02a.287.287 0 0 0-.063.084c-.02.041-.062.062-.083.104a.157.157 0 0 1-.083.041l-.02.146c-.063.02-.125.041-.146.02a.724.724 0 0 1-.186.125.574.574 0 0 0-.166.104c.02-.02.041 0 .103.02l.042.022c0 .062-.021.103-.062.124.02 0 .02.021 0 .083-.021.063-.021.083 0 .083l.062-.041.228-.374c.02-.02.042 0 .042.02 0 .042-.021.125-.083.23l.062-.105c0 .042 0 .063-.02.104l.082-.062c.062-.125.062-.187.02-.187-.02-.02-.02-.02-.04 0a.79.79 0 0 0 .103-.125c.042-.041.062-.104.104-.124.02-.042.062-.042.083-.042v.042c0 .02-.02.041-.042.062l-.062.062c.083-.02.125.021.104.125 0 .145.02.208.041.208-.02.02-.062 0-.103-.021-.042-.02-.083-.02-.146 0-.02.062-.02.083.042.083l.041-.02c.021-.022.042-.022.042 0a.318.318 0 0 0-.145.207l.083-.125.041.083c.02-.02.042-.062.042-.124.186-.083.29-.083.352.041-.041.042-.083.063-.124.083-.042.021-.062.021-.083.021-.02 0-.042 0-.062.021-.021.02-.021.042-.042.083.02 0 .042-.02.104-.041.083-.042.124-.042.124 0a.435.435 0 0 0-.083.124c0 .042-.02.083-.041.083l.27-.166c.02.02.02.042.02.062.021.063.063.063.104.063-.02 0-.02-.02-.02-.083.062-.042.103-.063.124-.063 0 0 .02.021.02.083 0 .063.022.104.042.104l-.083.042c.021.083.083.083.229.02l-.083.084c.207-.083.332-.125.352-.146-.041 0-.083 0-.103-.02-.021-.021-.042-.042-.042-.063v-.083c0-.02-.02-.041-.041-.062-.021-.021-.063-.021-.125 0l.104-.063c.104.125.187.25.249.354.02 0 .02 0 .02.02-.062.063-.062.104-.04.167-.084.041-.125.062-.146.104l-.042-.083-.124.124c.062.083.207.021.436-.166 0 .02 0 .02.02.02l.021.042-.083.104c0 .042-.041.083-.104.166.042 0 .083 0 .104-.02.02-.021.042-.042.062-.104.021-.042.042-.083.063-.083l.083.166-.146.166c-.02.02-.02.042.021.062.021.021.062.021.125.021h.145c0 .021.02.063.042.125l-.063.041c-.041.084-.041.125-.02.125.041 0 .083 0 .124-.041l.187.54c-.25.312-1.1 1.08-2.553 2.286-1.453 1.205-2.428 1.974-2.885 2.306.104-.166.25-.353.436-.561-.747-1.704-2.138-3.013-4.151-3.948-.062.062-.145.125-.27.229-.124.103-.394.29-.81.56-.414.27-.87.54-1.348.77-.478.249-1.1.498-1.847.789-.768.29-1.557.52-2.367.706 0 1.143.312 2.452.955 3.928.644 1.475 1.515 2.888 2.636 4.26l-.041.02c-.021.021-.021.042 0 .042h.02v.02c.021.021.063.042.125.042l.062.083c-.062.021-.124.021-.145-.02-.104.02-.166.041-.187.062 0 .02.02.041.042.062.02-.02.062-.02.145-.02.083 0 .145-.021.166-.042l.166.166-.062.062s.041 0 .103.021l.083.083c-.041.021-.062.042-.083.021 0-.02-.02-.02-.062-.041-.02-.021-.062-.021-.104-.021.021.02 0 .062-.083.104.021-.021 0-.042-.041-.063-.042-.02-.042-.041-.042-.104h.146c-.042-.02-.083-.062-.104-.166-.02.021-.062.063-.125.146.063.02.083.062.042.124 0 .042.02.063.062.083.042.042.02.063-.062.063h-.083c0 .041.02.062.041.062s.063 0 .104-.02l.083-.021c.02.062.02.103-.062.145a.75.75 0 0 0-.104.083c.125.02.208.125.25.312-.022 0-.084.02-.167.083.145-.02.25-.02.353 0l.02-.104c.021.02.042.02.063.02.02 0 .062.022.083.022.02 0 .041.02.041.02.063-.041.125-.02.187.042-.02 0-.041.02-.062.041-.145.021-.208 0-.228-.062-.042.062-.021.104.083.146.02 0 .041 0 .062.02.041 0 .041.021.02.042l.146-.146h-.042c0-.02 0-.041.021-.041h.021c0 .02.02.041.042.062.02.021.02.063 0 .083h-.021v.063l-.166.083c0 .041.062.062.187.062l-.063.042c-.041.02-.083.041-.104.083l.021-.02c.021-.022.042 0 .042.02s0 .041.02.041l.146-.083-.104.125c.02-.02.062-.02.083 0 .02.02.042.02.062.02 0 .022-.02.042-.062.084-.062.062-.083.104-.02.104l-.021-.042c.083 0 .124.021.124.042-.02.02-.041.041-.083.041 0 .021.042.063.104.083.062.042.062.084-.021.146l.02.041c.022-.02.042-.02.105-.041.02-.02.041 0 .02.062-.02.021-.02.042 0 .042l-.166.02.063.084c.02 0 .083 0 .145.02.062.021.124.021.166 0 0-.083.041-.124.145-.124.02 0 .02 0 .042-.021 0 .02-.042.062-.146.145-.103.063-.166.104-.228.125 0-.041-.041-.041-.124-.041.02.02.041.041.083.041h.041c-.02 0-.02.02-.041.062-.021.042-.042.084-.083.084-.021.02-.042.02-.083.041-.021-.041 0-.083.062-.125.041-.041.041-.062-.021-.083-.062-.02-.083-.02-.083-.041h.042c-.042-.083-.083-.104-.146-.063l.104.063-.125.062.021.02c.021.022.021.042.042.042l-.083.063c-.021.062.041.104.166.166.311-.229.498-.395.56-.478a.783.783 0 0 1 .187.312c-.145.02-.228.02-.25-.042l.084-.02c-.062 0-.104.02-.125.041l.021-.083a.44.44 0 0 0-.249.166h.083l-.104.083c.042-.041.083-.062.146-.041l.103.041c-.145.063-.207.063-.207.063l-.02.083.124.02c.083-.041.124-.062.145-.062.062.02.083.083.083.187.041-.041.062-.083.041-.104-.02-.02-.02-.041.021-.041l.062-.083c.042-.021.042 0 .021.041-.02.042-.02.063-.02.063h.062v-.063a.295.295 0 0 1 .124-.041h.083l.042-.063c-.063-.02-.083-.02-.104-.041l.062-.063-.145.063c-.042.041-.125.083-.228.145.02-.02.062-.083.124-.166s.125-.166.145-.187c0 .083-.02.145-.041.166.041-.02.104-.062.187-.083.083-.042.145-.062.166-.104h.02c-.103.125-.124.208-.082.291.02.02.041 0 .083-.02.02-.022.041-.042.062-.063 0 .02 0 .041.02.062-.02 0-.062.021-.103.063l.041.124-.02.042.103-.02c-.02-.022-.041-.042-.041-.063 0-.042.02-.063.062-.083.02 0 .042.02.062.041.021.02.063.042.125.02l-.27.23c-.062.124-.145.166-.249.166.02.062.042.083.062.083.021 0 .042.02.063.041-.021.063-.063.084-.125.084a.295.295 0 0 0-.125.041l-.02-.104c.02 0 .041 0 .062-.02a.35.35 0 0 1-.104-.042c-.041-.042-.083-.02-.124.02.02-.02.041-.02.062-.04.02-.022.041-.042.062-.063.042 0 .125-.042.25-.146-.021-.041-.063-.041-.084-.041-.02.02-.062.041-.104.062-.041.042-.083.042-.103.042l.02-.146c-.02.063-.041.104-.02.146-.021 0-.042-.021-.063-.063 0-.041-.02-.062-.041-.062.02.083.02.125-.02.145.02-.041.02-.083 0-.145-.022-.042-.022-.083-.022-.104a.218.218 0 0 1-.186.104l-.021.166c.02.021.062.042.124.104.042.062.104.083.166.104l-.02.042c0 .124.083.124.249 0 .104-.084.187-.104.207-.084-.02.042 0 .063.042.084.041.02.041.041-.021.103-.062-.02-.104 0-.124.084.103-.084.145-.104.166-.042-.021.02-.042.042-.042.062l.104-.083v.021c.062-.062.083-.125.062-.166.187-.125.27-.208.27-.208.062-.02.104 0 .104.042l.02.02.042.021v.042c.062-.042.104-.063.104-.083h.083c-.021.02-.042.062-.063.083-.02.02-.02.041-.041.062 0 .02-.02.042-.042.062l-.062.063a.158.158 0 0 1-.104.041c.021 0 .042-.02.083-.041.042-.021.083-.021.104 0l-.041.041c-.021.021-.021.021-.042.021l.02-.062a.374.374 0 0 0-.061.228l.041-.083c.02.02.02.042.02.104 0 .02 0 .02.022.02h.062l-.228.167-.063.083.083-.062c.021 0 .042.02.021.041-.02.042-.02.042 0 .042l.02-.02c.022-.022.022-.042.022-.084a.592.592 0 0 1 .29-.166c0-.083-.041-.083-.104 0l-.041-.021a.93.93 0 0 0 .332-.29h.062c-.02.02-.02.04-.02.061 0 .042-.021.063-.063.104 0 .063-.02.063-.041.021l-.104.187c-.02-.02-.042-.02-.062 0v.02c-.042-.02-.104 0-.208.105 0 .02 0 .062-.02.104l-.021.041c-.021.042-.042.063-.021.083 0-.02.02-.041.062-.062.042-.042.062-.062.062-.083l.063-.062.041-.021c-.02.02-.041.062-.062.104-.02.041-.02.083-.042.104.021-.021.042-.021.063-.021h.062v.166c.02.062.02.083.041.083 0-.02 0-.062.021-.104.062-.02.083 0 .062.063v.041c-.02.063-.02.104 0 .104l.104-.145.104-.063c-.041.146-.083.208-.104.208.021.042.063.042.104 0 .042-.041.083-.062.145-.125.042-.041.083-.062.104-.041 0-.02-.02-.042-.062-.083.041-.021.083-.063.124-.146 0 .021.021.063.042.083.02.042.02.063-.042.063.042.041.083.041.125.02l-.02-.062c.103.02.165-.02.227-.145-.02 0-.041.02-.083.041-.041.042-.062.063-.083.063-.02.02-.041 0-.083-.021-.02-.042 0-.083.042-.125.041-.02.062-.062.062-.125l-.124.042.02.083c-.02.02-.062.02-.103 0-.042-.02-.063 0-.104.062 0-.02 0-.041-.02-.062 0-.02-.022-.02-.042-.041-.021-.021-.021-.042-.021-.063v.021c0-.02-.02 0-.042.042l-.02-.042c-.042-.042-.063-.02-.083.062-.021.021-.021.042 0 .063 0-.021-.021-.021-.042-.021h-.062v.125l-.042-.021v.083c-.104-.042-.166-.125-.145-.25a.446.446 0 0 1 .208-.041c.083 0 .145-.02.186-.083 0-.02-.02-.02-.062 0-.041.02-.062.02-.062 0s0-.042.02-.062l-.082.103c-.021.021-.042 0-.063-.02 0-.021 0-.042.021-.083.145-.063.228-.125.25-.167l.02-.062c.02-.02.062-.02.083 0 .02.02.041.02.062.02 0 .022 0 .042-.02.063l-.021.042c0 .062.02.062.062.062l.124-.062c.042-.042.063-.021.083 0-.02.062-.041.104-.041.145l-.02.042c.02.02.082-.021.207-.104-.021.02-.021.062-.021.104l.104-.104c0 .02.02.041.041.062.021.02.021.042.021.083.02 0 .041-.02.062-.062l.042-.02-.021.04c.041.042.062.042.062 0 .021-.02.021-.04.021-.062a.114.114 0 0 1 .104-.062c.02 0 .02.02 0 .042-.042.041-.062.083-.062.124 0 .042 0 .083-.021.125.062.02.166-.042.353-.187.166.041.249.062.27.041.02 0 .04.021.062.042-.021.02-.042.042-.063.042-.02 0-.041 0-.062.02 0 .063-.02.083-.041.125.02 0 .041 0 .103.02.042.022.083 0 .125-.02.02.02 0 .062-.042.104l-.062.041.083-.062c0 .042 0 .083-.02.125.04.062.103.062.207-.042-.02-.041 0-.083.062-.145 0-.021 0-.021.021-.021.02 0 .02 0 .041.02v.125c0 .021-.02.021-.041.042-.042.042-.062.062-.042.083.042-.041.083-.041.125.02.042.063.062.084.104.043l.145-.167.311.167-.02.041h.124c1.723.831 3.466 1.247 5.23 1.247 1.598 0 3.051-.208 4.38-.644 1.328-.437 2.386-.977 3.196-1.642.81-.665 1.453-1.35 1.91-2.078.477-.727.746-1.413.83-2.078.165-1.205-.021-2.306-.582-3.262-.56-.956-1.411-1.953-2.573-2.992.685-.312 1.307-.374 1.847-.208 0 .02.02.041.041.062-.02 0-.041 0-.041.021 0-.02.02 0 .041.02l.104.167c-.02.02-.041.062-.041.146l.02-.021c.021-.021.042-.021.042-.042l.02.02v.084c-.02.02 0 .062.063.125.062.062.02.124-.125.166h.166c.021 0 .021.02.021.042.062-.042.083-.063.083-.042l.021.02.041-.082c.104-.083.187-.104.229-.104-.062-.104-.062-.166-.021-.187l.166.166.062.062-.083.021c-.062.062-.041.125.063.187.041-.062.083-.083.103-.062.021.02.021.02.042.02l.02.021a.157.157 0 0 1-.082.042c-.021 0-.042.02-.063.02-.02.021-.02.042-.041.063l-.042-.042a.162.162 0 0 0-.083-.083c.021.021.042.063.021.104-.02.042-.041.083-.083.125l-.124.125c-.042.041-.084.083-.104.124-.021.042-.021.063.041.063a.162.162 0 0 1 .083-.084.39.39 0 0 1 .166-.041c.063 0 .104-.02.125-.02-.02.061-.042.124-.02.165l-.25.125c-.02.042.02.062.125.042.103-.021.166-.021.186 0 0 .02-.02.041-.041.083-.062.041-.104.041-.125-.021-.02.062.021.104.104.104.042 0 .125-.021.228-.042.042-.02.083-.02.104-.02-.145 0-.249-.042-.27-.167h.125l-.062-.083.228-.062c-.042-.021-.083-.042-.104-.125.104 0 .166-.02.187-.041l.062.124v.125a.967.967 0 0 1-.062.187h.041l-.124.104c-.083.062-.145.104-.187.166l.29-.187c.021 0 .042.02.042.042 0 .041-.02.062-.062.103-.062-.02-.104.021-.145.084-.042.062-.063.104-.083.124.02.021.062 0 .083-.02.02-.021.041-.063.083-.146.02.02.041.02.103 0v.042c.104-.021.166-.104.229-.208l.041.104c-.02.02-.041.02-.062.041-.02.021-.062.042-.104.083l-.062.084a.162.162 0 0 0-.083.083.157.157 0 0 1 .083-.042c.02 0 .062-.02.083-.02l-.104.186.125-.124.145-.167c.062.125.083.229.104.312l-.083.208-.104.062.02.083.063-.041c.02.062.062.062.125.02l.062-.02c0 .02 0 .041.02.083 0 .041.021.062.021.083-.166.062-.186.166-.062.166zm-30.115-9.163c.581-.478.996-.894 1.245-1.206.104-.124.166-.311.208-.52.041-.228.062-.456.062-.726 0-.27 0-.437.02-.5.27-.394.561-.81.872-1.183.312-.395.623-.749.914-1.06.29-.312.643-.665 1.079-1.04.436-.373.768-.685 1.058-.913.27-.25.665-.54 1.163-.915.498-.374.871-.623 1.12-.81.25-.166.644-.436 1.204-.79.56-.353.934-.602 1.121-.706.187-.104.581-.353 1.183-.707.602-.374.955-.582 1.08-.665a99.672 99.672 0 0 1-2.574-.457c-1.08-.208-1.972-.353-2.636-.478a41.063 41.063 0 0 0-2.366-.29c-.893-.084-1.764-.105-2.595-.021-.83.062-1.66.207-2.49.415-2.159.561-3.985 1.62-5.459 3.18-1.473 1.558-2.22 3.24-2.262 5.049-.041 1.85.623 3.553 2.013 5.09 1.39 1.538 3.134 2.473 5.272 2.785.062-1.226.332-2.369.768-3.532zm1.183 1.039l.041-.416c-.062-.332-.103-.561-.166-.686-.02-.02-.103.208-.27.707l.395.395zm1.432.062l-.104-.104c-.041-.042-.104-.104-.207-.187a2.5 2.5 0 0 1-.229-.208l-.083-.083-.041.062c-.02.063-.062.104-.083.167l-.042.062v.166l.789.125zm3.238-19.907v-.187l-.042.021c0-.02.021-.062.063-.145l.145-.042.02.02-.062.105h-.02l.02.083c-.02-.02-.02-.042-.041-.062-.021.02-.021.041-.021.104-.02.062-.041.103-.062.103zm1.888 1.663a.159.159 0 0 1-.041-.104c0-.042 0-.062-.02-.083-.022-.125-.022-.167 0-.146.02.063.02.083.04.125 0-.062 0-.125-.02-.166v-.146c0-.062 0-.104.02-.145-.02.02-.04.02-.103.02-.042 0-.083.042-.104.104.02.063.042.146.062.27.021.125.042.23.063.292.02.041.041.062.062.041.062.042.062 0 .041-.062zm.436-.977v-.041c-.02-.021-.041-.021-.041 0-.021.062-.021.083-.042.083-.02-.021-.02-.042-.02-.083l.02-.042-.062.02c-.062.022-.083.063-.062.167-.021.02-.042 0-.063-.062 0 .083-.041.104-.103.104-.042-.021-.063 0-.063.041 0 .02 0 .062.021.104.021 0 .042-.02.062-.083l.042.208c.02-.021.02-.042.02-.104 0-.042 0-.083.021-.083l-.02-.021c.02-.042.083-.062.166-.062l.062.166a.236.236 0 0 0 .062-.166c0 .02.021 0 .042 0 .02-.021.041-.021.062 0 0-.021 0-.042-.02-.084-.042-.062-.063-.062-.084-.062zm-.29 1.205v-.104l.041.063c-.02-.125-.041-.208-.02-.208.02-.02.041-.02.041.02l-.02.042c.02.021.02 0 .04-.041.022-.042.022-.042.042 0 .021.02.021.02.021.041v.042c0-.042.02-.125.062-.208v.125c.021-.125.063-.125.166 0 0-.021 0-.021-.02-.042 0-.02-.021-.02-.021-.041.02-.042.02-.042.041.02l.021.125c0-.041.02-.041.083 0 .062.042.083 0 .083-.062.02-.395.062-.686.083-.873l-.02.042c0-.021-.021-.063-.063-.146 0 .062 0 .104-.02.104 0-.166-.021-.25-.063-.25-.02.063-.062.125-.083.23-.02.103-.041.207-.062.332-.02.124-.042.207-.062.27 0-.02-.042-.063-.146-.104-.02-.083 0-.166.042-.187h-.083l.083.187c-.042.02-.062.02-.062 0 0 .02 0 .041.02.083 0 .042.021.062.021.083 0 .02.02.02.042 0-.021.083-.042.146-.063.146-.02-.021-.041-.063-.041-.125s.02-.104.02-.146c-.02.021-.02.084-.02.167-.021 0-.042.02-.063.083-.02.062-.062.02-.083-.083-.02.02-.02.083-.02.208 0 .041.041.124.083.207zm.975 31.938l-.02-.125.062-.041c-.021 0-.042 0-.063-.021-.103 0-.124-.02-.041-.083-.02.02 0 .02.02.02-.02-.04-.04-.062-.082-.04-.042.02-.083.04-.146.061-.062.021-.103.021-.145 0v.084c0 .041 0 .062.02.062.022.02.063.041.167.062-.02-.02 0-.062.041-.145 0-.021.021-.021.063 0 .02 0 .02.02 0 .041l.041-.02c-.02.02-.02.041-.041.083 0 .041-.042.062-.104.083.02.02.062.02.104 0 .062 0 .083-.021.124-.021zm-.228-33.392l.145-.021c0-.02-.02-.042-.041-.083-.021-.042-.021-.062.02-.062-.041-.042-.062-.021-.062.041l-.02-.104c-.021.021-.042.021-.042-.02v-.167l-.062.104.02.062-.02.333c.02 0 .02-.02.041-.042 0-.02.02-.041.02-.083 0-.02 0-.041.022-.041v.083h-.021zm.457.976l-.021-.207c0 .02 0 .02-.021.02 0 0-.02 0-.02.021l-.022-.104c-.02-.02-.041-.02-.062.042-.02.062-.02.083-.041.083l.02-.02c-.041-.063-.083-.042-.103.061-.021-.041-.021-.083.02-.103.021-.021.021-.042.021-.084.021.021.042 0 .062-.041l.042-.062c-.062-.063-.104-.167-.104-.312a.418.418 0 0 0-.02.25c.02.124 0 .207-.021.228l-.063-.042.021.187c-.02 0-.02-.02-.02-.062-.021-.042-.021-.062-.042-.083 0 .041 0 .062-.02.062-.022 0-.022 0-.022.02 0-.061-.02-.103-.041-.103v.104c-.02-.062-.042-.104-.02-.125.02-.02.02-.041.02-.104-.02 0-.02.083-.02.25h.02c0 .02 0 .02-.02.041-.022.021-.022.042 0 .063.02 0 .02 0 .02-.021l.062.104c.02-.042.042-.063.104-.083.041-.021.083-.021.104-.021v.062h.103c.042.02.063.02.084-.02zm-.187 33.019l.166-.042c-.021-.02-.021-.02-.042-.02h-.041c-.021.02-.021.02-.042 0l-.02-.022a.287.287 0 0 1 .082-.062c.042-.02.063-.02.084-.041-.021 0-.063.02-.104.041.02-.041.02-.062-.021-.062h-.083c-.042.02-.062.02-.104 0-.02-.021-.041-.042-.041-.083.041-.021.062-.042.041-.083-.062.02-.083 0-.062-.021l.083-.083c-.02.02 0 .041.041.041.083.021.125 0 .125-.041 0-.021-.02-.042-.042-.063-.02-.02-.041-.041-.041-.062-.02.042-.104.104-.27.187.02.02.042.062.062.166 0 .104.021.166.063.187l.124-.124c.062.02.042.041-.02.062l-.084.083h.146v.042zm.436-34.598l.041.02v.022c.02.02.02.02.02.041 0 .063-.02.125-.04.167a.296.296 0 0 0-.042.124c0 .063-.02.063-.042 0-.02-.02-.02-.041-.02-.062.02.02.02-.02.02-.083.021-.042.021-.083.042-.083 0 0 .02.02.041.062 0-.062-.02-.104-.041-.145l.02-.021v-.042zm.103 35.408c0-.083.021-.145.063-.166-.021-.021-.042-.021-.063 0-.02 0-.041.02-.083.02a.157.157 0 0 1-.083.021c.021.021.063.042.083.063.042.02.063.041.083.062zm.021-35.345v-.042c.145 0 .166-.125.02-.395H34.265c-.02.062-.041.125-.083.229a3.358 3.358 0 0 0-.062.166c-.042.062-.083.062-.104.042zm.83-.084l-.041.042c.02.042.062.042.083.02 0 .022-.021.063-.062.105-.042.041-.063.104-.083.166-.021.062-.021.062-.042 0l-.02-.042c-.022.063-.042.083-.063.083-.02 0-.042.021-.062.042-.021 0-.021-.042-.042-.104-.02-.041-.041-.083-.062-.083l.02.125c-.062.041-.103.041-.165 0 .02-.042.041-.042.062-.042l-.042-.145.042-.021-.02-.083.04-.083-.02-.042.041-.02.042.145c0 .02 0 .02-.02.041v.021c.02.02.04.042.061.02-.02-.02-.02-.082-.02-.186.02-.02.041-.042.062-.042.02 0 .041 0 .041-.02.063.062.083.166.042.27.02-.021.02-.021.041-.021s.021-.02.042-.062c-.02.02-.02 0-.02-.021v-.146l-.042.042c0-.125.041-.125.104-.042-.021.021-.021.063-.021.146.062-.083.062-.167 0-.229l.062-.083.062-.042-.02.187.02.104zm.478 36.073l-.042.062c0-.02-.02-.02-.062-.02-.062 0-.062-.021-.042-.042.021 0 .083-.041.166-.125l-.103.042.062-.104a.202.202 0 0 0-.187-.02c0 .02.02.02.062 0 .042 0 .042 0 .042.02a.608.608 0 0 1-.332.083c-.062.083-.083.125-.104.125.062.062.145.062.208-.042.062-.02.083-.02.062.021-.02.104-.042.166-.02.166l-.042.021.103.02v-.082l.166-.042a.162.162 0 0 0 .083-.083c-.02.02-.02.02-.02 0zm1.1-36.01l-.021.02c-.062.042-.083.084-.083.167l-.02.02c-.022.021-.042.021-.042.042-.042-.041-.063-.062-.063-.104.021 0 .042-.041.063-.104a.287.287 0 0 1-.083.063.213.213 0 0 0-.104.124l-.02-.041v-.063l.061-.145-.166.042c-.02.02-.02.062 0 .124.021.063 0 .104-.041.166l-.042.167-.062.187c0-.021 0-.042.02-.042-.02-.02-.04-.041-.04-.062.04-.187.062-.312.082-.374-.02.062-.041.062-.062.062l.02-.041-.062.02c-.02.021-.02.042 0 .042.021 0 .021.02.021.041l-.062.063h-.062c-.021 0-.042 0-.063-.021-.02-.02-.041-.062-.041-.145-.02-.021-.02-.021-.02.02-.022.021-.022.042-.022.083l-.02.063c-.021.041-.021.041-.042.02-.02-.02-.02-.041-.041-.02 0 .02 0 .062-.021.104-.02.041-.02.083-.042.124l-.041-.041c-.02.062-.02.104 0 .104s.041 0 .041.02v.084c0-.021 0-.021.021-.042l.02.104c-.02-.02-.04-.02-.061.041l-.021.042c0 .02-.02.042-.042.042-.02 0-.041 0-.062.02-.02-.041 0-.104.02-.166l.063-.062-.062.041c.02-.02.02-.062.041-.124 0-.042.021-.083.021-.104l-.02-.021c0-.02 0-.02-.021 0 .02-.062.041-.125.02-.166a.351.351 0 0 1-.041-.104c.02-.02.02 0 .041.041.021.063.042.104.042.146l.062.041.062-.166h-.041c-.02.021-.042 0-.042-.02l.021-.063-.041.062c.041-.145.083-.249.124-.29-.02-.084-.062-.084-.124-.021-.063.083-.083.083-.104.02l.02-.02c-.062.02-.124 0-.145-.063a.815.815 0 0 1-.041-.27l.747.125c0 .02 0 .041-.02.062 0 .021-.022.042-.022.063l-.083-.021c0 .02 0 .041.021.062 0 .042.021.063.042.063l.02-.021a.159.159 0 0 0 .042-.104l.083-.125.187.042c0 .062.02.062.062.02.02 0 .02 0 .02-.02.022.02.063.02.105.02l-.021.063c.02-.063.083-.042.145.062.042.02.042.02.042.042zm-.893.145h.062c.021 0 .042-.041.063-.083l-.021-.166c-.02.02-.042 0-.062-.042l-.021-.02c.02.02 0 .083-.042.166-.02-.021-.02-.042-.02-.083l.02-.063h-.062l.042.021-.042.146.02-.021c.042-.021.063.02.042.083 0 .02 0 .041.021.062zm.727 1.06v-.125l-.125.042.125.083zm.622-.665l-.207.166c0 .021.02 0 .062-.041.062-.042.083-.063.104-.042l-.229.25c-.02-.021 0-.042.021-.084.02-.02.042-.041.042-.062l-.083.02c-.021 0 0-.04.041-.165.02 0 .042-.021.062-.063.021-.041.042-.062.083-.062-.02-.02-.062 0-.103.062l.062-.166c0-.02-.02-.042-.042-.083-.02-.02-.062-.02-.103 0 0 .041-.021.062-.063.104.021 0 .021.02.021.041s0 .042-.02.063c-.063.02-.104.02-.125 0l.02.02v.063l-.186.187v-.166l.083-.084-.042.104.083-.124v-.25c.063.042.208-.02.415-.166.021.02.063.02.083.02h.063l-.042.042c-.02.042 0 .042.021.021.062-.02.083-.041.104-.041.02-.021.041-.021.041 0v.062l-.041.062c-.021.042-.021.063.041.104l-.062.063c-.02.02-.02.02-.041 0l-.042-.021v.166h-.02zm.56 36.738h.063l.041-.167a.287.287 0 0 1-.083.063c-.041.02-.062.062-.083.104v-.063c.021-.041.042-.062.021-.083-.02-.02-.02-.041.02-.062l.022-.042c.02 0 .02.021.02.063.021-.021.021-.042.042-.104l.062-.125c0-.041-.062-.02-.166.083-.041.042-.062.063-.083.042l.042-.166h.02c-.041-.021-.062-.042-.062-.104l.02-.021c-.061.062-.124.062-.186 0-.041.041-.083.062-.124.041-.042-.02-.083-.02-.125-.02l.125-.104c-.021-.021-.042-.021-.083.02l.041-.103-.228.145c-.021.02-.042.042-.042.062v.063c-.041.02-.062.02-.083 0 0-.021 0-.042.02-.063l-.04.042c0-.042.02-.083.04-.104.022-.042.063-.062.105-.083l.062-.042c0-.02-.02-.02-.042 0-.02 0-.041.021-.062.021h-.083c.02.042.02.083-.041.146-.021.062-.042.062-.063.041-.02-.02-.041-.02-.062-.02.02.04-.02.083-.124.124l-.021.02v.105l.02.02.063.104c.02-.083.062-.103.124-.062l.063-.062v.062c0 .02-.021.062-.042.104.02-.02.042-.02.062-.02.021 0 .042-.022.063-.042l.145.041c.332.166.54.25.602.27-.02 0-.02-.02-.02-.083h.04v-.041zm-.31-36.51l-.084.042c0-.02 0-.041.021-.062.02-.083 0-.125-.02-.125-.021 0-.042.02-.063.042l.104-.208v.041c.062-.02.104-.02.124 0 0 .021 0 .042-.041.084-.02.083-.02.124 0 .124l-.042.063zm.331.665c-.062.063-.124.084-.145.063-.02 0-.083 0-.145.041 0 .021.02.021.062 0 .042 0 .062-.02.104-.02.041-.021.062-.021.083 0 .02-.042.062-.063.041-.084 0-.02-.041-.02-.124.021.041-.02.062-.02.083-.02h.041zm.042-.187l-.104.042c.02 0 .042.02.042.062.02.021.041.021.103 0v-.062c-.02-.042-.02-.062-.041-.042zm.249 36.156l.249.042c.02 0 .042-.02.062-.042 0-.02.021-.062.021-.083 0-.041.02-.062.062-.083l-.124-.062c-.021 0-.042.02-.063.041l.042-.083-.104.104.042.083c-.063.063-.125.063-.187.042-.042-.021-.062-.063-.062-.125.02 0 .062-.02.083-.041.02-.021.041-.042.062-.042 0 0 .02 0 .062.042 0-.021 0-.042.021-.063 0-.02.02-.041.041-.062-.02 0-.062-.02-.145-.042-.083-.041-.166-.041-.228 0v.125c.02.02.041.083.041.229l.083.02-.062.125.104-.125zm.02-37.007c-.02-.021-.02-.063.042-.125.021 0 .042 0 .062.02l-.103.105zm.208-.208l.25.062a.114.114 0 0 0-.104.062c-.021-.041-.042-.062-.083-.062-.021 0-.021 0-.021-.02-.021-.021-.042-.042-.063-.021l.021-.021zm.146.727c-.063.02-.083.042-.104.042 0 0-.021.062-.042.166l.146-.208zm.684.416l-.062-.104.062-.021c-.041 0-.062-.02-.062-.083h.083c0-.042-.062-.042-.166 0-.104.041-.166.041-.207 0l.186-.104c-.02 0-.041-.02-.062-.042h.27c.062-.041.104-.083.083-.124-.02-.042-.02-.083-.02-.083-.042.041-.084.062-.105.062-.02 0-.041.02-.083.083l-.207.062.02-.104c-.02.021-.04.021-.082.021s-.063.021-.083.042c.02 0 .041 0 .041.02a.132.132 0 0 1-.124 0c-.042-.02-.083 0-.104.042.062.02.104.042.145.02.02.063 0 .105-.02.146h.062l.062-.02c.02.02.02.02 0 .041.02.02.02.02 0 .042-.02.02-.02.02-.042.02.063.021.104 0 .166-.02.063 0 .063.02 0 .062l-.103.02.145.042v-.062c.041-.02.062 0 .083.02.02.022.062.042.124.022zm-.601 36.218l.062-.104-.042-.125c0 .166 0 .229-.02.229zm.186-.229l-.124.208c.041 0 .083-.02.124-.062.042-.042.042-.083.042-.125.02-.02.02-.02.041 0 .021 0 .042-.02.063-.062v-.042a.334.334 0 0 0-.146.083zm.229-36.592l-.125.042c.02-.021 0-.063-.062-.125.02.02.02.062.02.125-.04.083-.082.103-.145.083 0 .02 0 .02-.02.041h.083c.041 0 .062 0 .083-.02.02-.021.02-.042.02-.063.063-.041.104-.041.125 0 0 .02 0 .02.02.02.021-.02.042-.02.084-.04l.062-.021h-.042c-.02-.021-.041-.021-.041-.042.062-.02.083-.02.104 0 .02-.02.041-.02.083-.02.041 0 .062-.022.083-.042-.104-.083-.25-.104-.436-.063.083 0 .124.063.104.125zm.519 21.403c.02-.042.02-.084-.021-.125a.162.162 0 0 0-.083-.083.157.157 0 0 0-.083-.042l-.063-.02-.145.311.332.25.374-.25a.498.498 0 0 1-.311-.041zm.809-4.032a.18.18 0 0 1 .083-.145c.041-.042.062-.083.041-.125.125-.187.187-.25.208-.166-.02.042-.041.062-.062.083l-.042.042c0 .02-.02.041-.041.083.062-.083.124-.146.145-.208.02-.02.125-.104.27-.29-.02.02-.062 0-.125-.063-.062-.042-.124-.042-.186.041-.042.063-.187.333-.457.832 0 .083.041.083.104.041l.062-.125zm.913.603l.976-.935-.063.042c.083-.167.166-.291.229-.354l-.104.104c-.042.042-.083.063-.104.083-.02.021-.041.021-.062.021.166-.187.228-.312.166-.374-.104.042-.27.166-.54.395-.249.228-.415.353-.498.395.02-.063.02-.125-.041-.167-.042-.041-.083-.062-.083-.083.083-.124.166-.166.249-.166l-.063-.062-.041-.021-.208.312a.045.045 0 0 1-.041-.042c-.104.125-.145.208-.083.208-.125.187-.208.228-.228.125l.062-.167c-.021-.02-.042-.02-.104 0-.041.021-.083.021-.104 0-.02 0 0-.062.021-.166-.02.02-.104.083-.228.229-.042.062-.042.145-.021.249v-.02l.02.103c0-.041.021-.083.042-.125.021-.041.062-.062.083-.083.021-.02.042-.02.062-.02.021-.021.021-.021.042 0 0 .02 0 .041-.02.083l-.042.02c.02.021.062.021.124 0l-.062.104c.042-.041.125-.083.27-.166l-.166.187c.145-.187.249-.166.27.062 0-.041.02-.062.041-.103.02-.021.042 0 .042.02l-.083.187c.02-.02.041-.02.062.021.02.042.041.062.062.104.042.104.083.083.166 0zm.042-1.33l-.021-.062c.041-.021.124 0 .27.104-.021.02-.021.062-.042.124-.02.063-.041.104-.062.146.062 0 .145-.042.228-.146 0 .021.021.021.063 0 .041 0 .062 0 .062.021.02-.02.041-.062.083-.125.02-.062.02-.103 0-.103 0-.021 0-.021.02-.021.021-.063-.02-.063-.124 0-.02.02-.02.02-.041.02 0-.041.02-.062.062-.103.041-.021.062-.042.062-.063-.02.021-.062 0-.083-.02-.02-.042-.062-.042-.104-.021-.041.02-.083.062-.145.166-.02 0-.02-.042 0-.145-.083.103-.166.124-.228.041-.063-.083-.125-.041-.208.125.042 0 .083-.021.145-.063l-.166.312c.021 0 .042 0 .063-.02.02-.021.062-.042.083-.084l.083-.083zm-.021.208c-.02 0-.083.062-.187.166.02 0 .042.021.02.063.125-.125.167-.208.167-.23zm.166.332l-.083-.062v.125l.083-.063zm1.08.873l-.105.062-.062-.041c.02-.02.042-.042.104-.083l.062.062zm1.078.042l-.145.02c-.02.042-.041.063-.02.063.04-.021.062-.021.062 0l-.166.145c.02.021.062-.02.145-.083.083-.083.124-.125.124-.145zm.81.644V37.1l.207-.124c-.041.02-.083.02-.145.02-.062 0-.104.021-.145.042-.042.02-.062.062-.104.104 0 .02.02.041.042.02.041.021.083 0 .145-.02zm5.396-12.426l-.124.208.041.332.29-.166c-.02-.208-.082-.333-.207-.374z"/>
    </g>
</svg>
