<svg xmlns="http://www.w3.org/2000/svg" width="64" height="56" viewBox="0 0 64 56">
    <defs>
        <linearGradient id="a" x1="15.624%" x2="57.979%" y1="8.353%" y2="92.163%">
            <stop offset="0%" stop-color="#05E7E6"/>
            <stop offset="100%" stop-color="#50E3C2"/>
        </linearGradient>
    </defs>
    <g fill="none" fill-rule="nonzero">
        <path fill="#50E3C2" fill-opacity=".366" d="M16 8a8 8 0 0 0-8 8v24a8 8 0 0 0 8 8h32a8 8 0 0 0 8-8V16a8 8 0 0 0-8-8H16zm0-8h32c8.837 0 16 7.163 16 16v24c0 8.837-7.163 16-16 16H16C7.163 56 0 48.837 0 40V16C0 7.163 7.163 0 16 0z"/>
        <path fill="url(#a)" d="M34.917 31.535a4 4 0 0 1-5.649 0L5.55 3.885A15.938 15.938 0 0 1 16 0h32c4.042 0 7.734 1.499 10.55 3.97L34.917 31.536z"/>
    </g>
</svg>
