<svg xmlns="http://www.w3.org/2000/svg" width="24" height="61" viewBox="0 0 24 61">
    <path fill="#FFF" fill-rule="nonzero" d="M12 2C6.477 2 2 6.477 2 12v18c0 5.523 4.477 10 10 10s10-4.477 10-10V12c0-5.523-4.477-10-10-10zm0-2c6.627 0 12 5.373 12 12v18c0 6.627-5.373 12-12 12S0 36.627 0 30V12C0 5.373 5.373 0 12 0zm.5 58.28l-9.427-6.6a1 1 0 0 0-1.146 1.64l9.98 6.986a1.001 1.001 0 0 0 1.186 0l9.98-6.987a1 1 0 1 0-1.146-1.638L12.5 58.279zM12 10a2 2 0 0 1 2 2v5a2 2 0 1 1-4 0v-5a2 2 0 0 1 2-2z"/>
</svg>
