<svg xmlns="http://www.w3.org/2000/svg" width="38" height="38" viewBox="0 0 38 38">
    <defs>
        <linearGradient id="a" x1="0%" x2="88.919%" y1="13.922%" y2="100%">
            <stop offset="0%" stop-color="#05E7E6"/>
            <stop offset="100%" stop-color="#50E3C2"/>
        </linearGradient>
    </defs>
    <g fill="none" fill-rule="evenodd">
        <path fill="#4B5969" fill-rule="nonzero" d="M19 38C8.507 38 0 29.493 0 19S8.507 0 19 0s19 8.507 19 19-8.507 19-19 19zm0-2c9.389 0 17-7.611 17-17S28.389 2 19 2 2 9.611 2 19s7.611 17 17 17z"/>
        <path fill="#FFF" fill-rule="nonzero" d="M19 33c-7.732 0-14-6.268-14-14S11.268 5 19 5s14 6.268 14 14-6.268 14-14 14zm0-2c6.627 0 12-5.373 12-12S25.627 7 19 7 7 12.373 7 19s5.373 12 12 12z"/>
        <circle cx="19" cy="19" r="9" fill="url(#a)"/>
    </g>
</svg>
