<svg xmlns="http://www.w3.org/2000/svg" width="30" height="35" viewBox="0 0 30 35">
    <path fill="#FFF" fill-rule="nonzero" stroke="#FFF" stroke-width=".5" d="M15.224 1L1 9.25v16.5L15.224 34l14.224-8.25V9.25L15.224 1zm12.877 8.613l-9.198 5.082-3.712-2.145-3.712 2.145-9.132-5.082 12.877-7.458 12.877 7.458zM15.191 21.13l-3.022-1.749 3.022-1.617 3.023 1.617-3.023 1.749zm3.384-2.31l-3.022-1.617v-3.696l3.022 1.749v3.564zm-3.712-1.617L11.84 18.82v-3.564l3.022-1.749v3.696zM1.986 10.174l9.198 5.082v4.29l.164.099 3.548 2.046.032 10.956-12.942-7.458V10.174zm13.567 22.473l-.033-10.956 3.548-2.046.164-.099v-4.29l9.23-5.082v14.982l-12.91 7.491z"/>
</svg>
