<svg xmlns="http://www.w3.org/2000/svg" width="30" height="30" viewBox="0 0 30 30">
    <g fill="#FFF" fill-rule="nonzero">
        <path d="M14.305 26.9a9.033 9.033 0 0 1-1.722-1.755.605.605 0 0 0-.827-.13.564.564 0 0 0-.135.802 10.2 10.2 0 0 0 1.945 1.982.602.602 0 0 0 .833-.09.564.564 0 0 0-.094-.81zM24.252 12.054a8.99 8.99 0 0 1 1.925 1.54.57.57 0 0 0 .818.01.608.608 0 0 0 .01-.842 10.155 10.155 0 0 0-2.174-1.739.57.57 0 0 0-.79.218.605.605 0 0 0 .21.813zM28.669 17.852a.579.579 0 1 0 1.128-.257c-.205-.9-.533-1.766-.975-2.577a.578.578 0 1 0-1.015.555c.39.717.681 1.483.862 2.279zM18.723 28.81a9.102 9.102 0 0 1-2.424-.65.598.598 0 0 0-.463 1.101c.875.37 1.796.617 2.74.734a.597.597 0 0 0 .147-1.186zM22.812 10.591a.583.583 0 0 0-.425-.709c-.636-.16-1.29-.258-1.95-.294C20.14 4.25 15.676 0 10.228 0 4.587 0 0 4.555 0 10.155c0 5.419 4.297 9.86 9.685 10.14a.578.578 0 0 0-.018.19c.07.93.267 1.844.587 2.716a.588.588 0 0 0 1.104-.4 8.893 8.893 0 0 1-.518-2.402.585.585 0 0 0-.019-.107c5.156-.295 9.3-4.4 9.613-9.515l.002-.02c.563.034 1.12.12 1.662.257.315.079.634-.11.714-.423zm-11.977 8.532c.3-4.476 3.916-8.066 8.423-8.364-.3 4.475-3.916 8.065-8.423 8.364zm-1.177.002h-.001c-4.727-.293-8.481-4.204-8.481-8.97 0-4.956 4.06-8.988 9.051-8.988 4.8 0 8.739 3.729 9.034 8.422-5.158.301-9.3 4.414-9.603 9.536zM29.429 19.812a.595.595 0 0 0-.629.56 8.893 8.893 0 0 1-.467 2.436.586.586 0 0 0 .378.746.6.6 0 0 0 .76-.371A10.05 10.05 0 0 0 30 20.43a.593.593 0 0 0-.57-.617zM28.228 24.822a.603.603 0 0 0-.838.158 9.328 9.328 0 0 1-1.703 1.881.602.602 0 1 0 .775.922 10.536 10.536 0 0 0 1.924-2.124.602.602 0 0 0-.158-.837zM23.494 27.976a9.407 9.407 0 0 1-2.418.687.58.58 0 0 0-.503.656.592.592 0 0 0 .68.486 10.64 10.64 0 0 0 2.734-.777.57.57 0 0 0 .3-.764.608.608 0 0 0-.793-.288z"/>
        <path d="M5.473 4.278a7.504 7.504 0 0 0-2.831 5.893c0 .322.26.584.58.584.32 0 .58-.261.58-.584 0-1.95.873-3.765 2.394-4.98a.585.585 0 0 0 .093-.82.579.579 0 0 0-.816-.093zM10.185 2.642c-.692 0-1.378.103-2.037.307-.302.094-.477.433-.39.759.072.268.3.443.547.443a.534.534 0 0 0 .158-.024 5.814 5.814 0 0 1 1.722-.26c.315 0 .57-.275.57-.613 0-.338-.255-.612-.57-.612z"/>
    </g>
</svg>
