<svg xmlns="http://www.w3.org/2000/svg" width="36" height="36" viewBox="0 0 36 36">
    <g fill="#FFF" fill-rule="nonzero">
        <path d="M14.834 3.318l.848.848L19.45.4H18A17.604 17.604 0 0 0 1.54 11.755l1.122.426A16.406 16.406 0 0 1 16.482 1.67l-1.648 1.648zM34.33 16.482l-1.648-1.648-.848.848L35.6 19.45V18A17.605 17.605 0 0 0 24.244 1.54l-.426 1.122a16.407 16.407 0 0 1 10.512 13.82zM19.518 34.33l1.648-1.648-.848-.848L16.55 35.6H18a17.604 17.604 0 0 0 16.46-11.355l-1.122-.426a16.406 16.406 0 0 1-13.82 10.511zM1.67 19.518l1.648 1.648.848-.848L.4 16.55V18a17.604 17.604 0 0 0 11.354 16.459l.426-1.122A16.406 16.406 0 0 1 1.67 19.518zM19.62 21.07a.5.5 0 1 0 .688-.726L18.892 19a.5.5 0 0 0-.689 0l-1.414 1.345a.5.5 0 1 0 .688.725l1.071-1.017 1.071 1.017z"/>
        <path d="M22.794 12.14h-.076c-1.1-1.679-3.048-2.69-5.231-2.69-3.229 0-5.886 2.374-6.14 5.402-2.392.23-4.266 2.156-4.266 4.51 0 2.51 2.13 4.534 4.745 4.534h4.246c1.638 0 2.976-1.272 2.976-2.853v-1.681h-1v1.681c0 1.017-.88 1.853-1.976 1.853h-4.246c-2.074 0-3.745-1.588-3.745-3.534 0-1.946 1.67-3.533 3.745-3.533h.5v-.5c0-2.688 2.306-4.879 5.16-4.879 1.942 0 3.64.93 4.522 2.442l.145.248h.641c1.721 0 2.684.99 2.684 2.525v.5h.5c1.764 0 3.038 1.387 3.038 3.197 0 1.946-1.671 3.534-3.745 3.534h-4.246c-1.638 0-2.977 1.27-2.977 2.852v1.68h1v-1.68c0-1.017.88-1.852 1.977-1.852h4.246c2.615 0 4.745-2.024 4.745-4.534 0-2.182-1.475-3.939-3.563-4.171-.199-1.822-1.557-3.051-3.659-3.051z"/>
        <path d="M17.477 25.722a.5.5 0 1 0-.688.725l1.416 1.345a.5.5 0 0 0 .688 0l1.415-1.345a.5.5 0 0 0-.689-.725l-1.07 1.017-1.072-1.017zM14.45 15.665c0-1.702 1.481-3.197 3.037-3.197v-1c-2.11 0-4.038 1.944-4.038 4.197h1zM14.657 21.879h.707v-1h-.707zM11.826 21.879h.708v-1h-.708zM13.241 21.879h.709v-1h-.709zM24.563 21.879h.707v-1h-.707zM21.733 21.879h.707v-1h-.707zM23.148 21.879h.708v-1h-.708z"/>
    </g>
</svg>
