<svg xmlns="http://www.w3.org/2000/svg" width="31" height="31" viewBox="0 0 31 31">
    <path fill="#FFF" fill-rule="nonzero" d="M30.489 15.366c0 5.44-4.026 10.227-9.466 10.989-3.7.544-6.854-.544-9.574-3.047-.544-.544-1.088-.544-1.741-.108-.327.217-.653.435-.98.761-.435.435-.543.762-.435 1.306.653 2.285-.761 4.787-3.046 5.331C2.853 31.142.46 29.51.133 27.116c-.217-1.74.436-3.264 1.959-4.243 1.523-.98 3.046-.87 4.57.109.435.326.87.326 1.305 0 .435-.326.762-.544 1.197-.87.435-.545.544-.98.217-1.633-1.632-3.481-1.632-6.963 0-10.336.327-.652.218-1.196-.326-1.632-.326-.217-.762-.544-1.197-.87-.435-.218-.761-.218-1.197 0-1.523 1.088-3.481.98-4.896 0C.351 6.553-.302 4.812.133 3.071.677 1.44 2.092.134 3.833.025c2.937-.326 5.33 2.611 4.46 5.44-.108.544 0 .87.436 1.306l.979.652c.653.544 1.197.436 1.85-.108.87-.87 1.849-1.524 2.937-2.068 6.854-3.264 14.688.98 15.885 8.378 0 .544 0 1.088.109 1.74zM19.282 23.2c4.352 0 7.943-3.482 7.943-7.834 0-4.461-3.482-7.943-7.943-7.943-4.352 0-7.942 3.482-7.942 7.834 0 4.46 3.481 7.943 7.942 7.943zM4.268 28.748c1.305 0 2.285-.979 2.393-2.284 0-1.306-1.088-2.285-2.284-2.394-1.306 0-2.285.98-2.285 2.285-.11 1.305.87 2.393 2.176 2.393zM1.983 4.16c0 1.306 1.088 2.285 2.285 2.285 1.305 0 2.285-1.088 2.285-2.285 0-1.305-1.088-2.284-2.285-2.284-1.306 0-2.285.979-2.285 2.284z"/>
</svg>
