<svg xmlns="http://www.w3.org/2000/svg" width="38" height="39" viewBox="0 0 38 39">
    <g fill="#FFF" fill-rule="nonzero">
        <path d="M9.83 32.381c-2.278-1.52-3.907-3.563-4.641-5.844l-1.131.363c.82 2.548 2.62 4.807 5.113 6.47l.66-.989zM23.595 34.43c-1.465.396-3.012.6-4.595.6-1.582 0-3.127-.203-4.592-.6l-.31 1.147c1.567.424 3.216.642 4.902.642a18.81 18.81 0 0 0 4.905-.642l-.31-1.147zM27.6 14.758c3.541 2.129 5.65 5.43 5.65 8.992 0 3.36-1.875 6.492-5.08 8.63l.66.988c3.519-2.347 5.607-5.838 5.607-9.618 0-4.005-2.345-7.678-6.225-10.01l-.612 1.018z"/>
        <path d="M12.385 13.733l.3-.117c1.08-.424 1.359-.53 1.84-.687.96-.311 1.782-.46 2.694-.46V11.28c-1.046 0-1.99.17-3.06.519-.464.15-.745.254-1.608.592L7.718 8.94v6.222c-1.907 1.618-3.309 3.31-3.98 5.027H1.78a1.78 1.78 0 0 0-1.78 1.78v3.564c0 .983.796 1.78 1.78 1.78h4.75v-1.187h-4.75a.593.593 0 0 1-.593-.593v-3.563c0-.328.265-.593.593-.593H4.59l.133-.412c.535-1.663 1.956-3.399 3.97-5.07l.214-.177v-4.469l3.48 2.485zM17.813 14.844c3.61 0 6.48.705 8.55 2.256l.712-.95c-2.307-1.73-5.419-2.494-9.262-2.494v1.188zM10.094 37.406v-7.125H8.906v8.313h5.938V33.25h-1.188v4.156zM24.344 37.406V33.25h-1.188v5.344h5.938v-8.313h-1.188v7.125z"/>
        <path d="M12.469 19.594a1.78 1.78 0 1 1-3.563 0H7.718a2.969 2.969 0 1 0 5.938 0h-1.188zM36.812 20.188a2.97 2.97 0 0 1-2.969 2.969v1.188A4.157 4.157 0 0 0 38 20.188h-1.188zM24.344 4.156V.593h-1.188v3.563zM21.969 7.719V4.156h-1.188v3.563zM23.156 5.344V6.53h1.188V5.344zM20.781 1.781v1.187h1.188V1.781zM20.661 13.892a2.375 2.375 0 1 1 2.932.718l.517 1.07a3.564 3.564 0 1 0-4.398-1.074l.95-.714zM18.406 31.469h1.187v-1.188h-1.187zM20.781 31.469h1.187v-1.188h-1.187zM16.031 31.469h1.187v-1.188h-1.187zM0 38.594h38v-1.188H0z"/>
    </g>
</svg>
