<svg xmlns="http://www.w3.org/2000/svg" width="39" height="39" viewBox="0 0 39 39">
    <g fill="#FFF" fill-rule="evenodd">
        <path fill-rule="nonzero" d="M3.58 19.903a1.194 1.194 0 1 0-2.387.002 1.194 1.194 0 0 0 2.387-.002zm1.194 0A2.388 2.388 0 1 1 0 19.902a2.388 2.388 0 0 1 4.775.001zM28.646 20.5h5.37v-1.194h-5.37z"/>
        <path fill-rule="nonzero" d="M4 20.597h5.37v-1.194H4zM33.419 19.903a2.389 2.389 0 0 1 4.775 0 2.388 2.388 0 0 1-4.775 0zm1.194 0a1.195 1.195 0 0 0 2.387 0 1.194 1.194 0 0 0-2.387 0zM26.258 24.678h2.388c.982 0 1.789.807 1.789 1.79v3.58h1.194v-3.58a2.99 2.99 0 0 0-2.983-2.984h-2.388v1.194z"/>
        <path fill-rule="nonzero" d="M32.225 31.839a1.194 1.194 0 1 0-2.387.001 1.194 1.194 0 0 0 2.387-.001zm1.194 0a2.388 2.388 0 1 1-4.775-.002 2.388 2.388 0 0 1 4.775.002zM11.936 23.484H9.549a2.99 2.99 0 0 0-2.984 2.984v3.58h1.194v-3.58c0-.983.806-1.79 1.79-1.79h2.387v-1.194z"/>
        <path fill-rule="nonzero" d="M4.774 31.839a2.388 2.388 0 1 1 4.776.001 2.388 2.388 0 0 1-4.776-.001zm1.194 0a1.194 1.194 0 1 0 2.388-.002 1.194 1.194 0 0 0-2.388.002zM26.258 16.323h2.388a2.99 2.99 0 0 0 2.983-2.984V9.758h-1.194v3.58c0 .984-.807 1.79-1.79 1.79h-2.387v1.195z"/>
        <path fill-rule="nonzero" d="M33.42 7.968a2.388 2.388 0 1 1-4.777 0 2.388 2.388 0 0 1 4.776 0zm-1.195 0a1.194 1.194 0 1 0-2.387.001 1.194 1.194 0 0 0 2.387-.001zM11.936 15.129H9.549c-.984 0-1.79-.807-1.79-1.79V9.758H6.565v3.58a2.99 2.99 0 0 0 2.984 2.985h2.387v-1.194z"/>
        <path fill-rule="nonzero" d="M5.968 7.968a1.194 1.194 0 1 0 2.388 0 1.194 1.194 0 0 0-2.388 0zm-1.194 0a2.388 2.388 0 1 1 4.776.001 2.388 2.388 0 0 1-4.776-.001zM16.71 31.839a1.194 1.194 0 1 0-2.388.001 1.194 1.194 0 0 0 2.387-.001zm1.193 0a2.388 2.388 0 1 1-4.775-.002 2.388 2.388 0 0 1 4.775.002z"/>
        <path fill-rule="nonzero" d="M14.92 33.629v5.37h1.193v-5.37zM23.87 31.839a1.194 1.194 0 1 0-2.387.001 1.194 1.194 0 0 0 2.388-.001zm1.195 0a2.388 2.388 0 1 1-4.776-.002 2.388 2.388 0 0 1 4.776.002z"/>
        <path fill-rule="nonzero" d="M22.08 33.629v5.37h1.195v-5.37zM17.903 7.968a2.388 2.388 0 1 1-4.776 0 2.388 2.388 0 0 1 4.776 0zm-1.194 0a1.194 1.194 0 1 0-2.387.001 1.194 1.194 0 0 0 2.387-.001z"/>
        <path fill-rule="nonzero" d="M16.113 6.178V.806H14.92v5.372zM25.065 7.968a2.388 2.388 0 1 1-4.776 0 2.388 2.388 0 0 1 4.776 0zm-1.194 0a1.194 1.194 0 1 0-2.388.001 1.194 1.194 0 0 0 2.388-.001z"/>
        <path fill-rule="nonzero" d="M23.275 6.178V.806H22.08v5.372z"/>
        <path d="M21.548 17.3l-.027.05.008.076.064-.04c-.003-.048-.019-.077-.045-.086zm-1.157 2.865v-.01l.046-.027a.139.139 0 0 1-.033.007.099.099 0 0 0-.029.01.044.044 0 0 0-.02.025c0 .005.002.008.009.005.005 0 .014-.004.027-.01zm-.175-.149l-.033.005c-.005.009-.008.013-.004.013.009-.002.014-.002.014 0l-.036.031c.003.004.013-.003.03-.02.02-.015.029-.026.029-.029zm-.231-.009l-.022.014-.013-.01c.002-.005.01-.012.022-.017l.013.013zm-.234-.203l-.018-.013v.028l.018-.015zm-.036-.076c-.003 0-.015.012-.04.036.006 0 .008.004.005.013.026-.027.039-.044.035-.05zm.005-.045l-.005-.014c.01-.006.03.002.059.023a.37.37 0 0 0-.01.027.115.115 0 0 1-.013.031c.015 0 .032-.01.05-.031 0 .003.004.004.013.002.01-.001.015.001.015.007.002-.006.009-.015.017-.027.005-.015.005-.023 0-.023 0-.003 0-.004.004-.004.003-.015-.006-.015-.027 0a.01.01 0 0 1-.009.004c0-.009.005-.016.012-.022.007-.006.012-.01.012-.013-.007.003-.013 0-.02-.007-.005-.008-.012-.01-.02-.007-.006.003-.016.015-.029.036-.005 0-.005-.01 0-.031-.018.024-.033.026-.047.009-.013-.018-.027-.01-.042.026.008 0 .02-.004.03-.013l-.035.072c.003 0 .008-.002.013-.007a.064.064 0 0 0 .018-.02.103.103 0 0 1 .014-.018zm-.01.306l.213-.216-.014.009a.282.282 0 0 1 .05-.081l-.023.022a.275.275 0 0 1-.022.02c-.007.005-.011.007-.015.007.037-.045.049-.073.037-.085a.578.578 0 0 0-.115.092.736.736 0 0 1-.106.092c.006-.015.004-.026-.006-.035-.01-.01-.016-.016-.016-.018.018-.028.036-.041.055-.041l-.015-.014-.009-.004-.044.072c-.007 0-.01-.003-.01-.008-.023.029-.03.046-.017.048-.027.043-.044.052-.05.028l.014-.036c-.004-.003-.01-.003-.02 0-.012.002-.018.003-.02.002-.004-.002-.003-.014.004-.039a.304.304 0 0 0-.05.055c-.01.015-.01.035-.005.058v-.004l.005.022a.05.05 0 0 1 .008-.027.197.197 0 0 1 .017-.02c.005-.004.008-.007.01-.007.004-.003.006-.003.008 0 .001.003 0 .01-.002.018l-.01.005c.003.006.012.006.028 0l-.014.022a.233.233 0 0 1 .059-.036l-.036.045c.032-.041.052-.038.058.014 0-.01.002-.017.009-.023.006-.003.009-.002.009.005l-.018.045c.006-.006.01-.005.014.004a.06.06 0 0 0 .01.023c.005.006.015.002.03-.014zm-.193-.14c0-.011.005-.022.017-.03.01-.01.012-.018.005-.028.027-.042.043-.055.046-.04-.006.008-.01.015-.013.017l-.008.01-.006.018a.24.24 0 0 0 .032-.05.42.42 0 0 0 .058-.068c-.003.004-.012 0-.027-.013-.014-.012-.029-.009-.04.009a2.645 2.645 0 0 0-.1.19c0 .017.008.02.022.007l.014-.022zm-.175.929a.032.032 0 0 0-.002-.027.05.05 0 0 0-.016-.02c-.007-.005-.012-.01-.018-.013l-.013-.004-.033.073.073.058.08-.058a.139.139 0 0 1-.071-.01zm-.108-4.933l-.027.01c.002-.006-.002-.015-.014-.028.003.006.004.015.004.027-.009.018-.019.024-.031.018 0 .004-.001.006-.004.01h.015c.008 0 .013-.002.018-.005.004-.002.006-.007.002-.014.016-.009.025-.009.028 0 0 .004.001.005.005.005a.05.05 0 0 1 .018-.01l.012-.004h-.008c-.007-.003-.009-.005-.009-.009.011-.005.02-.005.023 0 .002-.003.009-.005.018-.006a.023.023 0 0 0 .017-.012c-.024-.02-.056-.025-.094-.013.02.006.03.016.027.031zm-.05 8.433l-.027.049c.009 0 .018-.005.026-.014.006-.008.009-.019.005-.026.004-.004.007-.004.01-.003s.007-.003.014-.015v-.01a.07.07 0 0 0-.027.019zm-.04.049l.013-.022-.01-.027c0 .035 0 .052-.004.049zm.126-8.341l-.013-.023.013-.005c-.01 0-.013-.006-.013-.018h.018c0-.01-.012-.01-.035-.003-.023.008-.036.01-.043.003l.04-.023c-.002 0-.006-.002-.012-.009.01 0 .02 0 .032-.002l.027-.002c.014-.01.02-.018.017-.03a.073.073 0 0 1-.004-.02c-.009.01-.016.014-.02.014-.005 0-.01.007-.017.018l-.045.013.005-.022c-.003.003-.008.005-.017.007-.01.002-.016.005-.018.01.005 0 .008.003.008.005a.037.037 0 0 1-.027 0c-.01-.002-.016 0-.023.01.013.006.023.007.032.004.003.015.002.026-.005.032h.015l.012-.005c.004.003.004.006 0 .009.004.003.004.006 0 .009-.002.003-.005.005-.009.005a.054.054 0 0 0 .037-.005c.011 0 .011.005 0 .013l-.022.005.031.01v-.015c.01-.002.014 0 .016.007.001.008.008.01.02.008zm-.145-.096a.288.288 0 0 1-.02.012.24.24 0 0 0-.007.038l.027-.05zm-.031-.166l.054.013c-.01 0-.016.005-.023.014-.003-.012-.009-.017-.018-.014-.003 0-.004-.001-.004-.004-.003-.006-.008-.008-.014-.004l.005-.005zm-.045.045c-.006-.007-.002-.014.01-.027.002 0 .007.001.013.005l-.023.022zm-.004 8.525l.053.01c.006 0 .01-.003.012-.01a.08.08 0 0 0 .004-.019.056.056 0 0 1 .011-.021l-.027-.013c-.005 0-.01.003-.013.009l.009-.017-.022.021.008.02c-.014.011-.028.014-.038.01-.01-.004-.014-.014-.01-.03a.023.023 0 0 0 .017-.009c.006-.004.01-.009.011-.01.001-.002.006.002.012.01 0-.003 0-.007.002-.012a.025.025 0 0 1 .006-.015.13.13 0 0 1-.03-.011.063.063 0 0 0-.05-.002v.028c.005.003.009.02.009.054l.018.003-.014.028.032-.024zm-.054-8.326l-.023.008c.006 0 .01.004.01.014.002.006.01.006.022 0v-.014c-.004-.008-.006-.013-.01-.013v.005zm-.01.04c-.015.011-.025.017-.03.016-.007-.002-.017.002-.032.011 0 .003.003.003.011.002.007 0 .015-.004.023-.006.006-.004.012-.004.015 0 .012-.01.017-.017.016-.023-.002-.007-.011-.004-.03.005a.068.068 0 0 1 .019-.005h.009zm-.072-.154l-.018.01c0-.004.002-.008.006-.014.002-.018 0-.027-.006-.027-.002 0-.007.003-.012.009l.022-.05v.01c.015-.007.022-.007.025-.003 0 .005-.001.012-.007.02-.003.018-.003.027 0 .027l-.01.018zm.068 8.415h.014l.009-.036a.068.068 0 0 1-.018.012c-.01.007-.016.014-.018.024v-.015c.005-.009.007-.013.002-.017-.004-.003-.004-.008.002-.013l.005-.01c.003 0 .004.004.004.014a.092.092 0 0 0 .01-.023.06.06 0 0 1 .013-.027c0-.013-.013-.006-.036.018-.01.009-.016.012-.018.009l.008-.036h.005c-.009-.004-.013-.01-.013-.022l.004-.004c-.015.01-.029.01-.041 0-.008.008-.017.01-.025.008-.007-.004-.016-.004-.023-.004l.025-.023c-.002-.006-.007-.005-.018.004l.01-.022-.05.031c-.006.004-.009.008-.009.014v.013c-.009.007-.013.007-.016.003a.027.027 0 0 1 .003-.016l-.01.009c0-.01.003-.017.007-.025a.069.069 0 0 1 .02-.02l.014-.009c0-.003-.001-.005-.007-.002a.063.063 0 0 0-.013.004c-.005.001-.01 0-.016-.002.007.009.004.019-.009.031-.002.012-.007.015-.013.01a.027.027 0 0 0-.014-.004c.004.008-.005.017-.027.026l-.004.004v.023l.004.004.014.024c.005-.023.016-.027.027-.015l.013-.013v.013a.039.039 0 0 1-.009.024.023.023 0 0 1 .011-.007.02.02 0 0 0 .012-.012l.031.01.131.063c-.003 0-.004-.006-.004-.018l.013-.005v.005zm-.12-8.464l-.047.04c0 .004.005 0 .014-.009.012-.01.02-.014.022-.009l-.05.059c-.003-.004 0-.01.005-.018.007-.006.01-.01.01-.014l-.019.005c-.002 0 0-.011.01-.036.003 0 .006-.006.01-.016.005-.01.01-.015.016-.015-.006-.007-.013-.003-.022.013l.013-.036a.028.028 0 0 0-.007-.018c-.004-.007-.01-.007-.02 0 0 .01-.004.016-.013.023.003 0 .004.003.004.009 0 .005 0 .01-.004.013-.011.006-.022.006-.027 0l.004.005v.013a.36.36 0 0 0-.04.045v-.036l.018-.018-.01.022.019-.026v-.059c.014.01.045-.003.09-.036a.136.136 0 0 0 .015.006.026.026 0 0 0 .013.002l-.01.01c-.003.01-.002.01.005.005a.054.054 0 0 1 .023-.01c.005-.006.007-.006.007 0v.014l-.007.014c-.007.009-.004.015.007.022l-.013.014c-.002.005-.006.005-.009 0l-.008-.005v.027zm-.132.153v-.027l-.027.009.027.018zm-.158-.247v.003a.037.037 0 0 1 .013-.005c.007-.003.011-.01.015-.02l-.005-.038c-.003.004-.008 0-.013-.009l-.005-.003c.003.006 0 .017-.01.035-.002-.002-.004-.01-.004-.018l.004-.014h-.012l.008.005-.008.032.004-.005c.008-.002.012.003.008.018 0 .01.002.015.005.019zm.194-.032l-.005.005c-.012.008-.018.02-.018.036l-.004.004c-.006.003-.01.006-.01.01-.008-.01-.013-.018-.013-.023.006 0 .01-.008.014-.023a.033.033 0 0 1-.018.014c-.009.002-.017.011-.022.027l-.005-.01v-.013l.013-.032-.035.01c-.004.006-.004.016 0 .028a.05.05 0 0 1-.01.04l-.008.035-.014.045c0-.006.001-.009.005-.009-.006-.003-.01-.008-.01-.013.01-.045.015-.074.019-.086-.007.012-.012.016-.014.013l.005-.008-.014.004c-.003.006-.003.01 0 .011.002.002.005.005.005.012l-.015.013-.01.002c-.004.002-.01 0-.015-.006a.071.071 0 0 1-.005-.032c-.004-.006-.005-.004-.005.004-.003.003-.005.01-.005.019l-.005.013c-.002.01-.005.01-.008.005-.003-.007-.006-.008-.01-.005a.065.065 0 0 1-.004.023l-.008.027-.01-.01c-.006.016-.006.023 0 .023.007 0 .01.001.01.004v.018l.003-.009.005.023c-.002-.006-.007-.002-.013.009l-.005.009c0 .007-.002.009-.01.009a.024.024 0 0 0-.013.004.058.058 0 0 1 .005-.036l.013-.013-.013.009a.066.066 0 0 0 .007-.027c0-.012.002-.02.002-.022l-.003-.005c0-.006-.003-.006-.006 0a.052.052 0 0 0 .003-.038.055.055 0 0 1-.008-.025c.004-.003.007 0 .01.01a.072.072 0 0 1 .008.03l.015.01.012-.036h-.009c-.005.002-.008 0-.008-.005l.005-.014-.01.014a.198.198 0 0 1 .028-.067c-.003-.02-.012-.02-.028-.005-.011.017-.02.02-.023.005l.005-.005c-.015.003-.025-.003-.03-.015a.218.218 0 0 1-.006-.062l.163.027a.039.039 0 0 1-.004.013v.014l-.02-.005.003.016c.002.008.004.014.007.017l.005-.005a.036.036 0 0 0 .009-.023l.018-.027.04.01c0 .011.004.012.013.003.004 0 .005 0 .005-.003a.063.063 0 0 0 .022.003l-.004.014c.006-.015.017-.01.031.013a.014.014 0 0 1 .005.01zm-.24 8.296l-.008.014c0-.003-.003-.004-.014-.004-.012 0-.014-.004-.009-.01.007 0 .02-.01.037-.026l-.023.009.013-.024c-.014-.009-.028-.01-.04-.004 0 .003.004.004.011.002.008-.001.01.001.007.007a.1.1 0 0 1-.072.019c-.012.017-.019.027-.022.027.015.014.03.012.045-.01.012-.006.016-.005.013.004-.006.025-.008.038-.004.04l-.01.006.023.005v-.02l.036-.007c.009-.004.016-.01.018-.018v-.01zm-.102-8.31l-.01.009c.007.01.013.011.019.005 0 .006-.004.014-.012.025a.091.091 0 0 0-.015.038c-.004.013-.007.013-.01 0l-.004-.009c-.003.011-.008.02-.013.02-.006.002-.01.005-.014.012-.003 0-.006-.008-.009-.023-.005-.012-.01-.018-.013-.018l.004.027c-.012.01-.023.01-.036 0 .003-.009.007-.012.014-.009l-.009-.031.009-.005-.005-.018.01-.019-.005-.008.009-.005.009.032c0 .003-.002.006-.005.008v.006c.003.005.008.007.014.004-.003-.003-.005-.018-.005-.045.004-.006.007-.01.012-.01.004 0 .006 0 .006-.004.015.016.018.037.01.064a.017.017 0 0 1 .008-.007c.004-.002.006-.008.01-.016-.004.003-.005.002-.005-.004v-.033l-.01.01c0-.028.009-.03.023-.01-.003.004-.004.014-.004.033.012-.02.012-.037 0-.055l.013-.018.014-.009-.005.045.005.018zm-.175.019v-.01c.032 0 .033-.03.004-.09l.025.002c.01.003.017.003.02.003l-.017.053a.343.343 0 0 0-.01.042c-.01.006-.017.006-.022 0zm-.006 8.143c0-.02.006-.035.015-.04-.004-.004-.007-.005-.012-.003a.072.072 0 0 0-.018.007.046.046 0 0 1-.016.004l.016.014c.005.006.01.01.015.018zm-.022-8.158l.01.005v.005c.002.003.004.006.004.01a.1.1 0 0 1-.007.038.06.06 0 0 0-.007.029c0 .01-.003.01-.01 0a.024.024 0 0 1-.003-.014c.003.002.004-.003.004-.018l.006-.018c.003 0 .005.005.008.014 0-.016-.003-.026-.01-.032l.005-.004v-.015zm-.095 7.968l.036-.008a.01.01 0 0 0-.009-.004h-.009c-.003.002-.004.003-.006.002a.016.016 0 0 1-.003-.007c.004-.006.01-.011.018-.014a.038.038 0 0 0 .018-.01.049.049 0 0 0-.022.01c.003-.01.002-.015-.002-.016a.027.027 0 0 0-.018.002c-.008.004-.014.004-.02 0-.006-.003-.01-.008-.01-.018.01-.005.013-.01.01-.018-.013.004-.016.001-.014-.004l.018-.018c-.002.005 0 .009.009.009.018.002.027 0 .027-.01l-.01-.013c-.005-.005-.008-.01-.008-.013-.003.009-.023.025-.058.045.005.003.01.016.01.038.002.022.006.037.012.044l.027-.028c.012.003.011.008-.005.014l-.018.017h.027zm.04-7.602l-.004-.05c0 .003 0 .005-.002.005-.001 0-.002.001-.002.004l-.005-.023c-.005-.006-.01-.002-.013.01-.002.011-.006.017-.01.017l.005-.004c-.009-.015-.016-.01-.022.014-.002-.012-.002-.02.002-.025.005-.005.006-.012.002-.02.004.002.008 0 .014-.01l.009-.013c-.015-.015-.023-.04-.023-.072-.005.009-.006.028-.004.056.003.03.002.046-.005.052l-.013-.008.004.045c-.003 0-.004-.005-.004-.015a.044.044 0 0 0-.009-.018c0 .01-.001.014-.004.014-.004 0-.005.002-.005.004 0-.015-.003-.022-.009-.022v.022c-.006-.015-.007-.024-.002-.027.004-.002.005-.01.002-.022-.003 0-.004.02-.004.06h.004a.01.01 0 0 1-.004.007c-.004.003-.004.008 0 .015.003 0 .004-.003.004-.005l.014.022a.025.025 0 0 1 .02-.017.082.082 0 0 1 .02-.005v.012l.022.004c.013 0 .02-.001.023-.007zm-.098-.225l.031-.005a.066.066 0 0 0-.006-.02c-.005-.01-.004-.016.002-.016-.009-.009-.013-.007-.013.01l-.005-.023c-.006.005-.009.004-.009-.005v-.037l-.013.023.004.014-.004.076c.003 0 .005-.002.006-.008a.098.098 0 0 0 .003-.018c0-.006 0-.01.004-.01v.019zm.05 7.692l-.005-.026.013-.01-.013-.004c-.024 0-.027-.007-.009-.018-.003.002-.001.004.004.004-.003-.012-.007-.015-.015-.01a.293.293 0 0 1-.032.014c-.013.007-.023.007-.029 0v.02c0 .008.001.013.005.013a.104.104 0 0 0 .036.013c-.003-.003 0-.013.009-.031 0-.004.004-.004.013 0 .003 0 .003.003 0 .009l.009-.005c-.003.003-.006.009-.007.018-.002.009-.008.015-.02.018a.021.021 0 0 0 .02 0 .05.05 0 0 1 .02-.005zm-.208-7.36v-.022l.01.014c-.007-.03-.008-.047-.006-.05.007-.005.01-.004.01.005l-.004.009c.002.003.006 0 .009-.01.002-.008.006-.008.008 0 .003.003.005.006.005.01v.009c0-.013.005-.028.013-.05v.027c.003-.027.015-.027.037 0l-.002-.009c-.003-.003-.003-.006-.003-.009.003-.009.006-.007.01.005l.004.027c0-.01.005-.01.018-.002.01.007.018.002.018-.016a2.66 2.66 0 0 1 .018-.203l-.005.009a.085.085 0 0 0-.013-.032c0 .016-.003.023-.005.023 0-.04-.004-.058-.013-.058a.177.177 0 0 0-.016.051 2.046 2.046 0 0 0-.013.076.576.576 0 0 1-.013.062c0-.007-.01-.014-.03-.022-.003-.022 0-.037.008-.046h-.018l.01.058c-.01.007-.015.007-.015 0l.003.018c.002.01.003.016.005.019.001.003.004.003.007 0-.003.021-.008.031-.015.031-.005-.005-.008-.015-.005-.029l.002-.033a.082.082 0 0 0-.005.034c-.003 0-.007.007-.014.02-.006.01-.011.005-.018-.02a.158.158 0 0 0-.005.05.158.158 0 0 0 .023.055zm.064-.279v-.009c-.007-.005-.01-.005-.01 0-.002.013-.006.018-.01.018a.05.05 0 0 1-.003-.018l.004-.009-.013.005c-.012.003-.016.016-.013.036-.003.003-.008-.001-.015-.014 0 .018-.006.026-.022.023-.008-.002-.012 0-.012.009 0 .007 0 .013.004.022.006 0 .01-.005.012-.018l.01.05c.003-.003.004-.01.002-.023-.001-.012 0-.018.002-.018l-.003-.004c.005-.01.017-.014.035-.014l.013.04c.01-.008.014-.022.014-.04 0 .004.003.003.007-.002.005-.004.008-.004.011-.002l-.004-.018c-.004-.01-.006-.014-.01-.014zm-.094.226a.028.028 0 0 1-.01-.023c0-.009-.002-.015-.005-.018-.006-.026-.006-.038 0-.032a.286.286 0 0 0 .009.028.1.1 0 0 0-.004-.036v-.032c0-.015.002-.025.004-.03-.002.002-.009.004-.02.005-.01.002-.017.01-.02.025a.993.993 0 0 1 .013.062l.014.069c.003.009.007.012.013.009.007-.004.008-.013.006-.027zm-.406-.383v-.041l-.01.004.014-.03.033-.01.003.004-.014.023h-.004l.004.018a.07.07 0 0 1-.009-.013c-.003.003-.004.01-.004.023-.006.014-.01.022-.013.022zm-.698 4.59l-.023-.023c-.009-.009-.023-.024-.044-.043a.726.726 0 0 1-.05-.047l-.018-.018-.009.014a.535.535 0 0 0-.018.036l-.01.013v.036l.172.031zm-.306-.019l.009-.094a.849.849 0 0 0-.036-.158.718.718 0 0 0-.059.163l.086.09zm-.253-.238c.126-.112.216-.205.266-.28a.266.266 0 0 0 .043-.12c.008-.051.01-.108.01-.167 0-.06.003-.1.005-.118.058-.093.12-.184.19-.275.068-.09.135-.171.195-.245.062-.073.14-.154.23-.24.092-.084.167-.155.226-.21a3.36 3.36 0 0 1 .249-.21l.24-.185a11.385 11.385 0 0 1 .501-.344l.252-.164.232-.154c-.135-.024-.319-.06-.551-.105a24.63 24.63 0 0 0-.568-.109 8.2 8.2 0 0 0-.508-.067 2.937 2.937 0 0 0-1.093.089 2.353 2.353 0 0 0-1.17.733c-.315.36-.477.747-.486 1.162-.01.426.134.817.431 1.171.298.355.675.568 1.131.64a3.33 3.33 0 0 1 .175-.802zm6.466 2.112l.015-.017c.047.29.041.575-.02.855a2.74 2.74 0 0 1-.436 1.007 3.343 3.343 0 0 1-.784.805 3.12 3.12 0 0 1-1.074.496c-.409.107-.832.133-1.267.079a3.076 3.076 0 0 1-1.051-.331 3.134 3.134 0 0 1-.862-.66 4.354 4.354 0 0 1-.64-.907 4.532 4.532 0 0 1-.407-1.093 5.198 5.198 0 0 1-.137-1.198 1.892 1.892 0 0 1-.402-.099 1.843 1.843 0 0 1-.427-.236 1.83 1.83 0 0 1-.4-.395 1.928 1.928 0 0 1-.284-.606 2.915 2.915 0 0 1-.113-.839c0-.166.042-.37.126-.615.084-.244.214-.511.391-.8.178-.288.384-.563.62-.824.235-.261.522-.496.86-.704a3.228 3.228 0 0 1 1.065-.427.172.172 0 0 0-.01.046c-.006-.012-.012-.014-.017-.004-.006.008-.012.011-.014.008l-.013-.027c-.015 0-.026.017-.032.05l-.018-.027c-.005 0-.007.004-.006.012a.149.149 0 0 0 .009.027c.004.01.003.017-.003.024-.005-.012-.014-.018-.024-.018-.011 0-.018-.004-.02-.013-.004.002-.004.01 0 .022h.004c.006 0 .009.002.009.01.002.003.003.005.003.008a.018.018 0 0 1-.012.005l-.01-.005a.05.05 0 0 0-.003-.018c0 .002-.007.01-.02.018a.086.086 0 0 0-.025.032.092.092 0 0 0-.01.044c.012-.023.02-.034.028-.03v.021c.005.006.01.005.012-.004v.036l.018.018a.66.66 0 0 0-.003.076c.009.003.013-.007.013-.031.002-.022.007-.033.012-.036l.01.004c0 .004.003.01.01.023 0-.002 0-.008.004-.016a.073.073 0 0 0 .004-.02l.01-.005c.01.034.01.05 0 .054.01 0 .023-.013.033-.042.01-.028.022-.04.038-.034 0 .003.001.011.005.025.002.013.005.022.009.024v-.022a.151.151 0 0 0 .004-.027c.007-.006.015-.006.027 0s.018.004.018-.005c.003.006.003.01 0 .014-.003.003-.005.007-.005.009.007 0 .012-.003.014-.011l.009-.027c.003-.01.008-.016.013-.016 0 .003.008.015.024.036a.049.049 0 0 1 .012-.023.33.33 0 0 0 .023-.02.225.225 0 0 0 .022-.02c.004.015.007.024.01.027.002.003.006.003.01 0 .001-.003.006-.004.01-.002.005 0 .008.008.012.02.01 0 .014-.01.009-.031-.004.003-.01-.002-.018-.014.01-.005.015-.018.013-.036l.018.023c-.007-.027-.008-.042-.004-.045.009.005.013.003.013-.01 0 .006 0 .015.002.028l.003.027.009-.018a.202.202 0 0 1 .004.054l.013.013c.004-.05.012-.075.027-.072 0 .022.002.034.005.04l.018-.026.004.022c.003-.009.013-.013.027-.013v.009l.01-.023c.008-.021.017-.016.026.018a.1.1 0 0 0 .01.027v.005c.002.012.008.015.017.009.009-.006.016-.008.018-.005l-.007-.02c0-.008-.005-.017-.01-.03v.019c-.003.012-.007.018-.01.018a.084.084 0 0 1 0-.034.139.139 0 0 0 .005-.034c.006-.003.015.018.028.063.002-.003.009-.003.02-.002a.03.03 0 0 0 .024-.007v-.009c0-.036.003-.053.008-.05.004 0 .007.004.01.009l.005.014c.002-.009.006-.014.008-.014-.006-.012-.007-.02-.004-.026.003-.007.002-.015-.004-.023.002 0 .004 0 .007.002l.006.012.007.018a.1.1 0 0 1 .002.017l.014.01c.009.005.014.005.018 0 0 .002-.002.01-.007.02-.004.01-.004.018.002.025l.014-.055h-.01c.006-.012.015-.007.028.014.002.011 0 .018-.005.018.006.006.011.001.018-.013v-.01a.336.336 0 0 0-.004-.035l-.005-.032.014.027.018-.004a.01.01 0 0 1 .004.009c.003 0 .005-.002.005-.005l.009.005c-.004-.04 0-.062.009-.069 0-.002-.004-.005-.01-.009v-.013l.04.019c-.005.006-.01.008-.013.008.004.012.01.016.02.009.012-.006.017-.001.02.013a.056.056 0 0 1-.01.025c-.005.006-.01.008-.018.01a.03.03 0 0 0-.016.007c-.006-.013-.006-.021 0-.027.007-.007.009-.012.009-.02l-.014-.008a.059.059 0 0 1-.006.023c-.005.01-.006.023-.002.04l-.01-.008v.003c0 .007.002.011.005.015l.005-.01c.026.013.05.017.071.014v.238c.004.003.005.01.005.02.007 0 .009-.01.009-.026a.287.287 0 0 0-.005-.052l-.004-.027.004-.005h.01l.005.018c.002-.002.003-.008.003-.015v-.018c-.003-.005-.002-.007 0-.007.004-.006.004-.01 0-.011-.002-.001-.003-.006-.003-.012.002.004.004 0 .008-.013.006-.016.01-.022.014-.022 0 .026-.002.041-.005.044l.013.023-.018.009-.012.058c0-.005.004-.009.017-.009v.027c.003-.002.006 0 .009.01.003.008.006.007.009-.005l-.01-.068.02.045a.185.185 0 0 0 .018.055l-.018-.077.008.004v-.013l-.013-.023-.005.005a.038.038 0 0 0 .002-.025l-.002-.022c0-.008.002-.013.005-.016v.027c.02-.018.035-.006.045.036l-.01.004c-.006 0-.01.004-.012.01.002.008.005.01.009.004.002-.006.005-.01.009-.01a.065.065 0 0 0 0 .037l.009.009.004-.023-.004-.009V15.9c.005-.032.018-.04.035-.022v.076c.003 0 .006-.013.01-.04.008-.03.014-.045.017-.045a.334.334 0 0 0-.009.072l.014-.05c.003.004.009.004.018 0h-.005c.003-.018.008-.02.014-.009.005.01.01.013.013.01l-.004.008c.009.01.018.004.027-.018v.018l.022-.045c-.007.006-.012.004-.02-.006s-.015-.01-.02.002l.013-.04a.34.34 0 0 0 .014-.045c.003.002.004.01.004.022l.014-.05v.014c.003.006.007.004.013-.009.012-.028.02-.04.023-.04a.142.142 0 0 1-.018.063c0 .012-.006.021-.018.029-.012.008-.017.019-.014.033l.014-.017a.014.014 0 0 1 .004.01.014.014 0 0 1-.004.012c.003 0 .006-.006.009-.018.009 0 .013.005.013.013a.075.075 0 0 1-.004.027c-.004.01 0 .018.009.027l-.014.027-.009-.009-.004.027c.006.004.012-.002.018-.015a.892.892 0 0 0 .022-.061c-.006.009-.009.006-.009-.009a.376.376 0 0 0 .005-.036c.003-.009.004-.009.004 0l.013-.018c0 .018.004.04.01.063a.13.13 0 0 1 0 .072c.003.006.006.008.01.004.006-.003.01-.007.019-.011a.043.043 0 0 1 .02-.007l-.005.018c0 .025.007.022.02-.009a.53.53 0 0 1 .012-.04l.005.018a.038.038 0 0 1 0 .022c.02-.032.034-.05.04-.05-.008.052-.012.078-.008.078l.009-.023h.009l.009.004v.005c.002.006.005.004.009-.005.005-.014.008-.023.004-.027l.014-.013-.005.009.018-.018.022-.023c.006-.005.013-.009.018-.009-.003.006-.005.017-.009.032-.003.012-.007.02-.013.022a.077.077 0 0 0 .009-.04c0-.003-.005 0-.013.009l-.01.013c.003-.003.005-.005.005-.009l-.004.01-.027.067a.197.197 0 0 1 .031-.018c.009 0 .02-.012.036-.036.003.003.009.005.018.007a.023.023 0 0 1 .018.01c.003-.005.005-.01.009-.013l-.01.036-.004.005c0 .003 0 .006-.002.01a.058.058 0 0 0-.002.013l-.011.01c-.005.005-.007.01-.007.013v-.01c-.003.003-.005.007-.007.012 0 .003-.005.01-.011.02h-.005l.01.005c.003-.004.004-.005.004-.003a.04.04 0 0 1-.005.012c.018-.016.027-.018.027-.01l-.004.004c0 .003-.003.01-.01.019l.008.002c0 .001.003.001.006-.002-.003 0-.003-.003 0-.009.01-.01.015-.013.018-.013a.202.202 0 0 0 .014-.015.068.068 0 0 1 .015-.012l.012-.01c.003-.003.006-.005.009-.005.009 0 .004.01-.014.027a.084.084 0 0 1-.018.017l-.018.013c-.005.005-.009.008-.009.01.013-.007.018-.01.018-.003l-.004.009h.009l.054-.05.009.01-.014.004h.014l-.007.007c-.001 0-.002.003-.002.007a.04.04 0 0 1 .013-.01.054.054 0 0 0 .014-.008c.003-.004.005-.007.005-.01.008 0 .008.004 0 .014a.034.034 0 0 1-.014.014.04.04 0 0 0-.014.009c0 .005.003.007.01.004l.008-.009.01-.01.023-.008c-.007 0-.008-.002-.006-.004.01 0 .012.005.01.018h.02a.05.05 0 0 0 .028-.01l.02-.008c.003-.004 0-.004-.01 0-.01.002-.012.002-.01 0 .004 0 .007-.004.01-.01a.103.103 0 0 0 .018-.014l-.031.006.022-.023c.004 0 .006 0 .01.002a.021.021 0 0 0 .008.003v-.01l-.004-.005-.005.005a.04.04 0 0 1-.028 0 .088.088 0 0 0-.022-.005c.01-.002.014-.008.017-.018a.023.023 0 0 1 .01-.018c.007 0 .008.004.005.01.006-.006.01-.01.01-.014 0-.002 0-.007.003-.014-.003.004-.01.007-.02.012a.044.044 0 0 0-.02.015h-.005c-.006-.003-.007-.007-.003-.013a.108.108 0 0 1-.033.013.046.046 0 0 0 .01-.013l.03-.01c.004.004.007.004.01 0l.008-.008.073-.023-.009.023c-.006.012 0 .011.014-.005.018-.018.027-.024.027-.022l-.01.027c0 .003.006.004.019.004.005-.002.006 0 .004.005v.013a.12.12 0 0 0 .031-.013c-.01-.004-.017-.007-.017-.014.014-.005.025-.005.031 0l.022-.018c.006-.002.012-.002.014 0 .003.004.003.006 0 .01 0 .006.004.007.013.004l.014-.018c-.002-.002-.007-.002-.014 0-.009-.002-.01-.01-.004-.02a.062.062 0 0 1 .023-.025c0-.003.003-.006.006-.009a.146.146 0 0 1 .02-.011.084.084 0 0 0 .02-.011c-.007-.004-.016-.003-.029.002a.083.083 0 0 1-.022.007v-.01h-.01c.004 0 .005-.003.005-.008.004-.013.01-.018.018-.018l.005.004v-.022c.138.032.312.078.52.137.209.059.395.11.559.158.162.046.349.095.558.148a8.418 8.418 0 0 0 1.095.208c.187.022.356.027.506.017.15-.01.293-.032.431-.065a1.007 1.007 0 0 0 .636-.455.96.96 0 0 0 .147-.437.707.707 0 0 0-.068-.362 1.054 1.054 0 0 0-.206-.275 1.256 1.256 0 0 0-.236-.19.842.842 0 0 0-.191-.088c.234-.17.44-.186.621-.045.163.124.248.327.257.608.01.286-.072.563-.239.834-.195.315-.507.644-.936.987-.174 0-.297.021-.365.063-.07.041-.113.136-.131.283-.002.006-.007.007-.013.003l-.025-.016c-.01-.007-.017-.008-.02-.005-.006.006-.023.005-.05-.004-.027-.009-.05-.006-.067.011-.018.016-.026.059-.023.124-.272.148-.53.236-.77.265-.234.027-.554.012-.96-.047a11.778 11.778 0 0 1-1.08-.2c-.311.19-.583.391-.812.608-.23.216-.433.464-.608.743-.176.28-.308.597-.398.953-.09.355-.136.749-.136 1.182.382-.03.793-.192 1.236-.484.444-.293.762-.609.957-.949.226.025.438.103.64.235l-.023.013h-.009l-.018.054.023-.045c.003.004.013-.003.031-.018h.005l-.01.014.046.022c0-.002 0-.005.004-.009l.076.059c-.008.012-.06.083-.157.212.004-.006.003-.01-.002-.01-.004 0-.01.003-.016.005.013-.018.017-.028.014-.031.003-.013-.008-.01-.032.009-.012.005-.018.008-.018.004l.01-.004c0-.022-.014-.022-.041 0a.067.067 0 0 1 .015-.025c.005-.004.009-.006.012-.002.002.002.007.002.011 0 .005-.004.008-.01.011-.023.003.01.006.013.012.012l.02-.01a.059.059 0 0 1 .017-.006c-.008-.03.003-.065.037-.104-.018.006-.038.026-.059.061-.021.034-.037.052-.049.052l-.01-.014-.045.05c-.002 0 0-.008.01-.023.011-.015.015-.022.01-.022-.008.009-.012.011-.018.007-.004-.005-.01-.004-.015.002.012-.018.015-.03.009-.036a.055.055 0 0 1-.017.027c.008-.021.015-.032.021-.032.003 0 .006 0 .008-.002a.037.037 0 0 1 .007-.009l.009-.021c-.01-.002-.032.017-.064.06.003 0 .005.002.007.006.002.005 0 .008-.003.011-.002.004-.006.004-.009.003-.003-.003-.008.002-.013.01.003.003.008.002.013-.004a.123.123 0 0 0-.007.03c0 .01 0 .017.003.02.009-.006.016-.008.02-.007a.074.074 0 0 1 .02.011.052.052 0 0 0 .02.01l-.007.004v.004a.038.038 0 0 1 .017.018.059.059 0 0 0 .015.02.05.05 0 0 0 .028.007l.04-.013c.01-.004.02-.016.034-.039a.654.654 0 0 0 .036-.067.155.155 0 0 1 .02-.038.027.027 0 0 0 .014-.005c.01-.003.01 0 .01.01l-.02.013a.032.032 0 0 0 .025-.011l.016-.016c.003-.003.007-.003.009 0 .01-.003.012-.007.01-.012-.003-.004 0-.01.008-.02 0 .006.008.002.022-.013a.14.14 0 0 1 .027-.022l.01.008v.004l-.014.018a.075.075 0 0 1-.018.022c-.006.007-.011.01-.018.01l-.005.032c-.014.006-.024.007-.031.004a.16.16 0 0 1-.038.027.153.153 0 0 0-.034.023c.003-.003.01-.003.023.004l.009.005c0 .014-.005.023-.014.027.003 0 .003.006 0 .018-.003.012-.003.018 0 .018l.014-.01.049-.085c.007-.003.01-.002.01.005a.18.18 0 0 1-.02.054l.016-.023a.044.044 0 0 1-.006.023l.018-.014c.012-.03.013-.045.004-.045-.003-.003-.006-.003-.008 0a.308.308 0 0 0 .02-.027.18.18 0 0 1 .02-.029c.006-.008.012-.011.018-.011v.009c0 .003-.004.008-.01.013-.005.006-.01.01-.012.014.017-.003.025.006.022.027 0 .032.003.05.009.05-.006.003-.013 0-.02-.005-.007-.006-.017-.006-.03 0-.005.014-.003.021.01.018l.01-.005c.005-.003.008-.003.008 0-.015.01-.025.026-.032.05l.018-.027.01.018c.005-.006.008-.015.008-.027.04-.022.065-.018.077.009a.126.126 0 0 1-.026.02.033.033 0 0 1-.017.007.012.012 0 0 0-.01.006.084.084 0 0 0-.01.02.062.062 0 0 0 .023-.009c.017-.007.026-.007.026 0a.058.058 0 0 0-.016.03c0 .01-.002.018-.006.02l.057-.04a.019.019 0 0 1 .006.013c.006.012.013.017.022.014-.003 0-.004-.006-.004-.019.016-.009.022-.013.025-.013 0 0 .002.007.002.018 0 .016.002.022.009.022l-.018.01c.002.018.019.02.05.005l-.019.018c.045-.018.07-.03.077-.033-.01 0-.015 0-.02-.004-.005-.002-.007-.007-.007-.014v-.018a.016.016 0 0 0-.007-.013c-.005-.003-.012-.003-.025 0l.023-.013a.693.693 0 0 1 .06.085c-.013.012-.017.024-.01.037-.019.009-.029.015-.031.022l-.01-.018-.027.027c.012.018.042.006.094-.036 0 .003.001.005.004.005l.005.009-.017.022c0 .01-.008.02-.023.036.01 0 .016-.002.02-.007a.124.124 0 0 0 .013-.022.13.13 0 0 1 .011-.02l.02.036-.033.036c-.003.006-.002.01.002.013.005.003.014.004.028.004h.028c0 .007.004.015.01.027l-.014.01c-.01.017-.01.027-.002.029.007.002.016-.003.025-.012l.04.126c-.053.073-.237.248-.549.525-.313.278-.52.455-.621.53.023-.037.056-.08.094-.13-.162-.391-.459-.694-.892-.91l-.055.051a3.137 3.137 0 0 1-.86.49c-.164.064-.332.12-.507.16 0 .264.07.566.207.904.138.339.327.665.568.98l-.01.005c-.002.005-.002.009 0 .009h.005v.003c.006.007.015.009.027.009l.014.019c-.016.006-.026.005-.032-.004-.024.002-.038.007-.04.013 0 .006.002.01.008.012a.077.077 0 0 1 .032-.004c.018 0 .03-.002.036-.008l.036.04c-.009.01-.013.014-.011.014l.02.003.018.02c-.009.005-.015.007-.016.004a.052.052 0 0 0-.01-.011.038.038 0 0 0-.023-.007c.005.005 0 .013-.018.022.002-.005 0-.01-.007-.013-.008-.004-.01-.011-.007-.023h.032c-.01-.003-.017-.016-.023-.041-.006.003-.015.013-.027.032.015.004.018.013.008.027 0 .01.006.015.015.018.009.01.004.014-.015.014h-.017c0 .009.003.013.007.013l.02-.004.018-.005c.006.011.003.024-.011.034-.013.011-.02.017-.02.02.027.003.045.028.054.073a.098.098 0 0 0-.036.017.216.216 0 0 1 .076 0l.005-.022a.05.05 0 0 0 .013.007.052.052 0 0 1 .016.005c.004 0 .006.003.006.005.013-.008.026-.004.04.01-.005 0-.01.003-.013.008-.03.007-.046.002-.049-.013-.009.015-.003.026.018.032.003 0 .008.001.013.005.01 0 .01.003.005.008l.031-.032h-.009c0-.005.001-.009.005-.009h.004c0 .004.004.008.01.015.005.005.005.012 0 .018h-.005v.012l-.036.02c0 .008.013.013.04.013l-.013.008a.051.051 0 0 0-.023.019l.005-.005c.007-.003.009-.002.009.005 0 .005.001.009.004.009l.032-.018-.023.027c.007-.003.012-.003.016 0a.02.02 0 0 0 .011.004c0 .003-.004.009-.013.018-.015.016-.017.022-.005.022l-.004-.009c.018 0 .028.004.028.01-.004.006-.01.01-.02.01 0 .004.009.01.023.019.016.007.014.019-.003.033l.003.01c.004-.004.011-.006.023-.01.006-.003.008.001.004.014-.002.006-.002.009 0 .009l-.036.005.014.017c.006 0 .017.001.032.005a.06.06 0 0 0 .035 0c0-.017.011-.027.033-.027.002 0 .005-.001.009-.005 0 .007-.012.017-.032.032a.169.169 0 0 1-.05.028c0-.01-.01-.013-.027-.01.003.006.009.01.018.01h.009c-.003 0-.006.005-.01.014a.027.027 0 0 1-.017.022c-.004.002-.008.005-.018.008-.006-.008-.001-.019.013-.028.01-.007.008-.013-.003-.016-.012-.004-.02-.007-.02-.01h.01c-.01-.022-.02-.026-.032-.014l.023.015-.027.013.004.005c.004.005.006.007.01.007l-.019.015c-.002.012.01.026.036.04a1.71 1.71 0 0 0 .123-.107c.017.02.031.045.04.072-.034.005-.052.002-.054-.01l.018-.005c-.016 0-.025.003-.027.01l.005-.019a.1.1 0 0 0-.055.037h.018l-.023.017c.01-.01.02-.014.033-.01l.022.01c-.03.012-.045.018-.045.014l-.005.018.028.005a.135.135 0 0 1 .031-.014c.011.007.018.02.018.045.009-.012.011-.02.007-.024-.005-.006-.005-.008.002-.012l.013-.018c.01-.003.01 0 .005.01-.003.008-.005.014-.002.014 0 .002.005.001.01-.001v-.014a.048.048 0 0 1 .026-.009h.015l.01-.014c-.013-.002-.02-.006-.023-.01l.013-.012-.031.013a.217.217 0 0 1-.05.032 2.587 2.587 0 0 1 .058-.085c0 .02-.002.034-.008.04a.214.214 0 0 1 .04-.02c.018-.008.03-.015.036-.024h.005c-.022.025-.027.049-.018.066.003.003.009.002.018-.005l.013-.012c0 .007.002.01.005.012-.006 0-.014.005-.023.015l.01.027-.005.009.022-.006c-.006-.002-.009-.007-.009-.014 0-.008.005-.015.014-.02.005 0 .01.002.013.008.003.006.012.008.028.005l-.06.054c-.014.027-.033.04-.053.04.002.012.008.018.013.02.006.001.01.006.014.012-.007.012-.015.019-.025.02-.01.002-.019.005-.025.012l-.004-.024c.005 0 .01 0 .013-.004-.006 0-.013-.003-.02-.011-.008-.007-.016-.006-.025.007l.014-.01a.036.036 0 0 0 .013-.012c.01 0 .027-.011.054-.032-.005-.01-.011-.012-.015-.01a.173.173 0 0 0-.023.016c-.011.008-.017.012-.02.012l.004-.032a.036.036 0 0 0-.004.032c-.007 0-.01-.005-.011-.014-.003-.009-.004-.013-.007-.013.006.018.004.029-.005.031a.05.05 0 0 0 0-.031.092.092 0 0 1-.004-.023c-.009.016-.022.023-.04.023l-.005.041a.084.084 0 0 1 .025.022c.01.012.021.02.033.023l-.004.009c0 .026.018.026.054 0 .023-.019.04-.025.045-.019-.003.01-.001.016.006.019.008.002.007.009-.002.021-.014-.005-.023 0-.027.02.02-.022.033-.025.036-.01-.005.006-.009.01-.009.014l.023-.02v.006c.012-.015.016-.028.013-.035a.485.485 0 0 0 .058-.05c.016-.003.023 0 .023.008l.004.005.01.004v.009c.015-.009.023-.016.023-.018h.018a.068.068 0 0 0-.015.018l-.005.017-.008.012-.01.014a.048.048 0 0 1-.022.01c.004 0 .01-.001.02-.008.007-.006.015-.006.022 0l-.01.009c-.003.003-.006.005-.01.005l.005-.014a.102.102 0 0 0-.012.055l.008-.02c.003.004.004.012.004.024 0 .004.001.006.002.007a.026.026 0 0 0 .013.002l-.05.04-.014.017.019-.012c.006 0 .007.005.003.011-.002.007-.002.012 0 .012l.005-.005a.036.036 0 0 0 .004-.018.117.117 0 0 1 .063-.04c0-.022-.007-.022-.022 0l-.008-.005a.235.235 0 0 0 .072-.068h.013c-.003.003-.004.009-.002.017.001.008-.002.014-.011.023 0 .016-.004.017-.01.005l-.022.045c-.003-.006-.008-.006-.013 0v.005c-.01-.007-.025.001-.046.023a.09.09 0 0 1-.004.022l-.004.01c-.007.008-.008.015-.006.017 0-.002.006-.008.014-.016.009-.008.014-.014.014-.02l.013-.013.01-.005a.054.054 0 0 0-.015.025.162.162 0 0 1-.008.025.017.017 0 0 1 .01-.005h.013v.036c.002.012.005.019.009.019 0-.007 0-.015.003-.024.012-.006.018 0 .015.014v.01c-.007.013-.007.021 0 .021l.022-.031.023-.014c-.01.033-.017.05-.023.05.006.009.014.01.023.002l.029-.026c.01-.011.017-.014.02-.012 0-.002-.005-.01-.014-.018a.097.097 0 0 0 .027-.031c0 .006.003.013.007.02.005.006.002.012-.007.015.01.01.018.012.027.005l-.004-.014c.021.006.038-.004.05-.03-.004 0-.009.002-.017.01a.159.159 0 0 1-.017.016c-.005.002-.01.001-.016-.005-.004-.01 0-.02.009-.026a.032.032 0 0 0 .013-.027l-.027.007.005.02c-.006.005-.013.006-.02.002-.008-.005-.015 0-.02.016a.042.042 0 0 0-.003-.014.042.042 0 0 0-.007-.011.026.026 0 0 1-.004-.016v.003s-.003 0-.009.01l-.004-.01c-.01-.007-.015-.003-.018.015-.004.006-.004.01 0 .014 0-.004-.004-.005-.01-.005h-.013v.027l-.009-.005v.018c-.025-.009-.035-.028-.031-.058.009-.007.023-.009.042-.009.02 0 .032-.005.039-.018 0-.003-.005-.003-.012 0-.008.004-.01.004-.01 0 0-.003 0-.008.004-.014l-.018.023c-.007.004-.012.001-.014-.004 0-.004.001-.01.005-.02.032-.013.05-.025.053-.034l.005-.015a.02.02 0 0 1 .016 0c.004.004.008.005.01.005 0 .003-.001.008-.004.014l-.004.01c0 .01.004.015.013.012a.052.052 0 0 0 .025-.015c.008-.008.014-.007.016.002a.07.07 0 0 0-.01.032l-.004.009c.004.003.018-.005.045-.024a.052.052 0 0 0-.004.024l.022-.024c0 .007.002.012.007.017.004.004.005.011.002.02.003 0 .008-.004.014-.013l.009-.005-.005.01c.01.008.015.008.015 0a.045.045 0 0 0 .003-.014c.007-.01.015-.015.022-.015.004 0 .004.003 0 .01-.007.01-.012.018-.01.027a.056.056 0 0 1-.003.027c.012.003.038-.012.077-.045.036.01.055.013.059.01.003 0 .008.003.013.008-.003.006-.007.01-.011.01-.005 0-.009 0-.011.004 0 .012-.004.02-.01.027.004 0 .01.002.02.006.011.005.019.002.026-.006.003.006 0 .013-.01.022l-.013.009.018-.014a.113.113 0 0 1-.004.027c.009.015.023.012.045-.009-.003-.009 0-.02.013-.031 0-.002.002-.004.004-.004.004 0 .006.002.01.004v.027c0 .003-.004.007-.01.009-.009.01-.012.014-.009.018.01-.011.017-.01.025.004.008.016.015.018.02.01l.032-.037.068.04-.005.01h.028c.369.193.742.29 1.12.29.342 0 .655-.051.94-.15.283-.1.512-.225.686-.38.174-.152.312-.311.412-.478.1-.167.16-.328.178-.48.036-.28-.006-.53-.125-.752a2.76 2.76 0 0 0-.552-.69c.148-.071.28-.088.397-.05 0 .004.004.009.01.014-.006 0-.01.003-.01.005 0-.002.004-.001.01.004l.022.036c-.007.007-.01.017-.01.032l.005-.004c.006-.003.01-.006.01-.009l.004.005v.017c-.004.003 0 .012.014.028.01.014.003.027-.028.036h.016c.008 0 .015 0 .02.002.002.001.002.005 0 .011.013-.012.018-.016.018-.009l.005.005.009-.018c.023-.02.04-.026.05-.023-.012-.024-.014-.04-.004-.045l.034.036.015.013-.02.004c-.014.012-.01.028.015.045.01-.014.017-.018.022-.012.003.003.007.004.009.004l.005.005a.057.057 0 0 1-.019.01c-.004.002-.01.004-.012.007a.031.031 0 0 0-.009.014l-.01-.009a.029.029 0 0 0-.017-.02.025.025 0 0 1 .003.024.06.06 0 0 1-.016.027.344.344 0 0 0-.028.03l-.02.026c-.005.008-.003.014.007.016a.033.033 0 0 1 .017-.02.098.098 0 0 1 .035-.009c.012-.002.021-.003.023-.007a.062.062 0 0 0-.004.036l-.054.027c-.003.01.006.012.028.01.024-.003.037-.003.04 0 0 .002-.003.008-.01.018-.014.008-.022.007-.025-.004-.004.013.004.021.02.021.011 0 .028-.003.051-.009a.099.099 0 0 1 .023-.003c-.034 0-.053-.013-.059-.037h.026l-.012-.018.05-.014c-.01-.003-.018-.012-.023-.027.023 0 .037-.002.04-.009l.014.027v.028a.213.213 0 0 1-.014.045h.01l-.028.021a.199.199 0 0 0-.041.036l.064-.045c.005 0 .008.005.006.012a.072.072 0 0 1-.01.026c-.013-.004-.023.003-.032.016a.153.153 0 0 1-.02.028c.008.004.013.001.018-.004a.146.146 0 0 0 .015-.033c.003.004.01.004.023 0v.01c.021-.006.037-.022.05-.05l.008.024-.013.009a.082.082 0 0 0-.023.016l-.013.02c-.01.003-.016.008-.018.016.005-.004.011-.009.018-.01a.044.044 0 0 0 .017-.007l-.022.045.027-.028.032-.04c.01.031.019.055.022.073l-.018.05-.022.013.004.018.014-.01c.003.013.01.014.026.005l.014-.004.002.017.002.018c-.03.037-.031.055-.004.059z"/>
        <path fill-rule="nonzero" d="M13.587 25.413a7.793 7.793 0 1 1 1.69 1.284.708.708 0 1 0-.695 1.234 9.21 9.21 0 1 0-1.996-1.516.709.709 0 0 0 1.001-1.002z"/>
    </g>
</svg>
