<svg xmlns="http://www.w3.org/2000/svg" width="30" height="30" viewBox="0 0 30 30">
    <g fill="none" fill-rule="evenodd">
        <path stroke="#FFF" d="M29 13.482V26.5a2.5 2.5 0 0 1-2.5 2.5h-23A2.5 2.5 0 0 1 1 26.5V13.482l7.305 6.824-4.15 4.27a.9.9 0 0 0 1.291 1.256l4.534-4.666a.55.55 0 0 1 .393-.166h9.257c.147 0 .29.06.392.168l4.534 4.664a.897.897 0 0 0 .645.27.898.898 0 0 0 .646-1.526l-4.15-4.27L29 13.482z"/>
        <path stroke="#FFF" d="M6 11.5A1.5 1.5 0 0 1 7.5 10h15a1.5 1.5 0 0 1 1.5 1.5v4.193l4.392-4.104-11.537-9.902a2.844 2.844 0 0 0-3.707 0L1.613 11.588 6 15.69v-4.19z"/>
        <path fill="#FFF" d="M12.75 16.34c0-1.13-.932-1.606-1.844-1.925-.906-.308-1.181-.53-1.181-.947 0-.313.269-.68 1.027-.68.502 0 .917.13 1.139.25l.054.03a.208.208 0 0 0 .157.015.176.176 0 0 0 .109-.099l.259-.676c.034-.092-.009-.194-.103-.242-.343-.176-.834-.282-1.367-.307v-.494a.266.266 0 0 0-.266-.266h-.468a.266.266 0 0 0-.266.266v.578c-.975.223-1.611.861-1.611 1.713 0 .846.628 1.457 1.916 1.871.923.305 1.108.6 1.108.973 0 .501-.436.802-1.166.802a2.944 2.944 0 0 1-1.412-.353l-.058-.03a.19.19 0 0 0-.158-.017.162.162 0 0 0-.11.101l-.247.696c-.033.086.006.181.092.232.38.223 1.034.38 1.646.406v.497c0 .146.119.265.266.265h.468a.266.266 0 0 0 .266-.265v-.573c1.195-.248 1.75-1.035 1.75-1.822zM22 13.23a.23.23 0 0 0-.229-.23h-6.542a.23.23 0 0 0-.229.23v.541c0 .127.103.228.229.228h6.542a.228.228 0 0 0 .229-.228v-.54zM21.771 17h-6.542a.23.23 0 0 0-.229.23v.541c0 .127.103.228.229.228h6.542a.228.228 0 0 0 .229-.228v-.54a.23.23 0 0 0-.229-.232zM22 15.23a.23.23 0 0 0-.229-.23h-6.542a.23.23 0 0 0-.229.23v.541c0 .127.103.228.229.228h6.542a.228.228 0 0 0 .229-.228v-.54z"/>
    </g>
</svg>
