<svg xmlns="http://www.w3.org/2000/svg" width="32" height="35" viewBox="0 0 32 35">
    <g fill="#FFF" fill-rule="nonzero">
        <path d="M29.864 19.75c0-7.657-6.207-13.864-13.864-13.864-7.657 0-13.865 6.207-13.865 13.864 0 7.657 6.208 13.864 13.865 13.864s13.864-6.207 13.864-13.864zm1.2 0c0 8.32-6.744 15.064-15.064 15.064S.935 28.07.935 19.75 7.68 4.686 16 4.686 31.064 11.43 31.064 19.75z"/>
        <path d="M17.543 3.143a1.542 1.542 0 1 0-3.085-.001 1.542 1.542 0 0 0 3.085.001zm1.2 0a2.743 2.743 0 1 1-5.486 0 2.743 2.743 0 0 1 5.486 0zM15.4 6.893v1.071h1.2v-1.07zM14.504 20.397l-6.429 6.429.849.849 6.429-6.43zM3.79 8.389l1.608 1.608.849-.849L4.639 7.54zM3.143 20.35h1.071v-1.2h-1.07zM28.857 19.15h-1.071v1.2h1.07zM16.6 32.607v-1.071h-1.2v1.07z"/>
        <path d="M17.007 19.75a1.006 1.006 0 1 0-2.013-.001 1.006 1.006 0 0 0 2.013.001zm1.2 0a2.206 2.206 0 1 1-4.413.001 2.206 2.206 0 0 1 4.413-.001zM4.214 5.598L1.85 7.964l.758.758 2.366-2.365-.759-.759zm2.032 1.183L3.032 9.995a.6.6 0 0 1-.849 0L.576 8.388a.6.6 0 0 1 0-.848L3.79 4.326a.6.6 0 0 1 .849 0l1.607 1.607a.6.6 0 0 1 0 .848zM27.362 7.54l-1.608 1.608.849.849 1.608-1.608z"/>
        <path d="M25.754 6.781a.6.6 0 0 1 0-.848l1.607-1.607a.6.6 0 0 1 .849 0l3.214 3.214a.6.6 0 0 1 0 .848l-1.607 1.607a.6.6 0 0 1-.849 0l-3.214-3.214zm3.639 1.941l.758-.758-2.365-2.366-.759.759 2.366 2.365zM16 10.171a9.579 9.579 0 0 1 9.579 9.58c0 5.29-4.289 9.577-9.579 9.577a9.542 9.542 0 0 1-6.772-2.804l-.848.849A10.742 10.742 0 0 0 16 30.528c5.953 0 10.779-4.825 10.779-10.778S21.953 8.971 16 8.971v1.2z"/>
        <path d="M16 13.386a6.364 6.364 0 1 1-4.5 10.864l-.848.849A7.564 7.564 0 1 0 16 12.186v1.2zM5.286 20.35h1.07v-1.2h-1.07zM7.429 20.35h1.07v-1.2H7.43zM9.571 20.35h1.072v-1.2H9.571z"/>
        <path d="M11.714 20.35h1.071v-1.2h-1.07z"/>
    </g>
</svg>
