<svg xmlns="http://www.w3.org/2000/svg" width="38" height="35" viewBox="0 0 38 35">
    <g fill="#FFF" fill-rule="nonzero">
        <path d="M19.332 7.04c-.022.021-.02.004 0 .076.01.023.116.094.109.094h3.165v4.646c0 .094.054.149.148.149h3.574c.094 0 .148-.055.148-.149V7.21h3.165c.091 0 .07.013.085-.033.017-.053.011-.074.057-.05l-.147-.117-5-5.948-.127-.071c-.047-.006-.107.02-.094.004L19.332 7.04zm11.27.43c-.15.448-.494.664-.961.664h-2.24v3.722c0 .604-.469 1.073-1.073 1.073h-3.574a1.058 1.058 0 0 1-1.072-1.073V8.134H19.44c-.356 0-.773-.279-.961-.665-.145-.434-.107-.778.171-1.053L23.735.37c.183-.184.478-.31.762-.31.157 0 .29.036.425.103.044.022.185.104.218.12l.147.116 5.009 5.959c.33.23.445.693.306 1.11zM11.16 22.03c5.622 0 10.174-1.671 10.174-3.46h.924v2.44c0 2.552-4.991 4.385-11.098 4.385-6.107 0-11.098-1.833-11.098-4.385v-2.44h.924c0 1.789 4.552 3.46 10.174 3.46zm0 .924c-4.537 0-8.457-1.011-10.174-2.578v.634c0 1.79 4.552 3.461 10.174 3.461s10.174-1.671 10.174-3.46v-.635c-1.717 1.567-5.638 2.578-10.174 2.578zm0 3.61c5.543 0 10.174-1.727 10.174-3.461h.924v2.44c0 2.553-4.991 4.386-11.098 4.386-6.107 0-11.098-1.833-11.098-4.385v-2.441h.924c0 1.79 4.552 3.46 10.174 3.46zm0 .924c-4.537 0-8.457-1.012-10.174-2.578v.634c0 1.79 4.552 3.46 10.174 3.46s10.174-1.67 10.174-3.46v-.67c-1.73 1.565-5.688 2.614-10.174 2.614zm0 3.522c5.622 0 10.174-1.672 10.174-3.461h.924v2.44c0 2.553-4.991 4.386-11.098 4.386-6.107 0-11.098-1.833-11.098-4.385v-2.441h.924c0 1.79 4.552 3.46 10.174 3.46zm0 .924c-4.537 0-8.457-1.012-10.174-2.578v.634c0 1.79 4.552 3.46 10.174 3.46s10.174-1.67 10.174-3.46v-.634c-1.717 1.566-5.638 2.578-10.174 2.578zm10.174-15.37c0-1.703-4.56-3.377-10.174-3.46-5.622 0-10.174 1.67-10.174 3.46s4.552 3.461 10.174 3.461 10.174-1.671 10.174-3.46zm.924 0c0 2.552-4.991 4.385-11.098 4.385-6.107 0-11.098-1.833-11.098-4.385 0-2.552 4.991-4.385 11.105-4.385 6.11.091 11.09 1.92 11.09 4.385z"/>
        <path d="M15.605 16.39c-.872-.523-2.702-.436-3.836-.262l-1.569.175c-.785.087-1.482.174-1.83-.088-.175-.087-.175-.261 0-.348.174-.088.435-.262.958-.436 1.134-.262 2.005-.175 2.441-.087.175.087.436 0 .61 0l.785-.175c.174 0 .262-.087.262-.174s0-.087-.175-.174c-.959-.35-2.615-.524-4.01-.262l-.523-.087c-.174-.087-.436-.087-.697-.087l-.785.174c-.349.087-.349.262-.262.262l.523.261c-.61.174-.959.436-1.22.61-.349.349-.262.61.436 1.046.959.524 2.702.436 3.836.262l1.569-.174c.785-.088 1.482-.175 1.83.087.175.087.175.261 0 .349-.174.087-.435.261-.958.435-1.134.262-2.005.175-2.441.088-.175-.088-.436 0-.61 0l-.785.174c-.175 0-.262.087-.262.174 0 .088 0 .088.175.175.959.348 2.615.523 4.01.261l.523.349c.174.087.436.087.697.087l.785-.174c.262-.087.349-.175.174-.262l-.435-.523c.61-.174.958-.436 1.22-.61.349-.349.174-.698-.436-1.046zM36.725 15.453c.021-.022.02-.005 0-.077-.011-.023-.117-.093-.11-.093h-3.077v-4.647c0-.094-.055-.148-.148-.148h-3.575c-.093 0-.148.054-.148.148v4.647h-3.164c-.092 0-.07-.014-.085.032-.033.1-.032.107-.145.051l.147.116 5 5.948c.06.033.12.068.128.071.046.006.107-.02.093-.004l5.084-6.044zm-11.184-.43c.15-.449.495-.665.962-.665h2.24v-3.722c0-.604.468-1.072 1.072-1.072h3.575c.604 0 1.072.468 1.072 1.072v3.722h2.153c.356 0 .774.279.962.665.144.434.106.778-.172 1.054l-5.083 6.045c-.184.183-.479.31-.763.31a.914.914 0 0 1-.425-.104c-.043-.022-.185-.104-.218-.12l-.147-.116-5.007-5.957c-.342-.235-.37-.667-.22-1.112z"/>
    </g>
</svg>
